<?xml version="1.0" encoding="UTF-8" standalone="no"?>
<!DOCTYPE svg PUBLIC "-//W3C//DTD SVG 1.1//EN"
"http://www.w3.org/Graphics/SVG/1.1/DTD/svg11.dtd">


<!-- Page 1 -->
<svg x="0" y="0" width="1550" height="1160" viewBox="0 0 1550 1160" version="1.1" xmlns="http://www.w3.org/2000/svg" xmlns:xlink="http://www.w3.org/1999/xlink"
style="display: block;margin-left: auto;margin-right: auto;">
<defs>

<style type="text/css"><![CDATA[

.g3_1{
fill: #333333;
}
.g2_1{
fill: #FFFFFF;
stroke: #333333;
stroke-width: 2;
stroke-linecap: butt;
stroke-linejoin: miter;
}
.g1_1{
fill: #FFFFFF;
stroke: #000000;
stroke-width: 2;
stroke-linecap: butt;
stroke-linejoin: miter;
}
.g4_1{
fill: none;
stroke: #FFFFFF;
stroke-width: 1;
stroke-linecap: butt;
stroke-linejoin: miter;
}

.s3_1{
font-size: 15.22px;
font-family: CMBX10_-;
fill: TRANSPARENT;
}
.s4_1{
font-size: 14.25px;
font-family: CMSY10__;
fill: TRANSPARENT;
}
.s5_1{
font-size: 14.25px;
font-family: CMR12_10;
fill: TRANSPARENT;
}
.s2_1{
font-size: 21.92px;
font-family: CMBX12_z;
fill: TRANSPARENT;
}
.s1_1{
font-size: 18.26px;
font-family: CMBX12_z;
fill: TRANSPARENT;
}

]]></style>

</defs>
<path d="M0,0
L0,1160
L1550,1160
L1550,0 Z " 
fill="#FFFFFF" stroke="none" />
<path d="M864.7,230.7c0,-76.5,-62,-138.5,-138.5,-138.5c-76.5,0,-138.5,62,-138.5,138.5c0,76.5,62,138.6,138.5,138.6c76.5,0,138.5,-62.1,138.5,-138.6Z" class="g1_1" />
<g fill="#000000" >
<use xlink:href="#f0_4" transform="matrix(12,0,0,12,651.3,235.3)" />
<use xlink:href="#f0_d" transform="matrix(12,0,0,12,662.8,235.3)" />
<use xlink:href="#f0_8" transform="matrix(12,0,0,12,673,235.3)" />
<use xlink:href="#f0_g" transform="matrix(12,0,0,12,679.3,235.3)" />
<use xlink:href="#f0_j" transform="matrix(12,0,0,12,686.7,235.3)" />
<use xlink:href="#f0_6" transform="matrix(12,0,0,12,701,235.3)" />
<use xlink:href="#f0_e" transform="matrix(12,0,0,12,711,235.3)" />
<use xlink:href="#f0_7" transform="matrix(12,0,0,12,719.4,235.3)" />
<use xlink:href="#f0_5" transform="matrix(12,0,0,12,735.6,235.3)" />
<use xlink:href="#f0_7" transform="matrix(12,0,0,12,748.2,235.3)" />
<use xlink:href="#f0_f" transform="matrix(12,0,0,12,757.6,235.3)" />
<use xlink:href="#f0_g" transform="matrix(12,0,0,12,765.7,235.3)" />
<use xlink:href="#f0_a" transform="matrix(12,0,0,12,773.7,235.3)" />
<use xlink:href="#f0_c" transform="matrix(12,0,0,12,779.4,235.3)" />
<use xlink:href="#f0_9" transform="matrix(12,0,0,12,790.8,235.3)" />
</g>
<text 
x="651" 
y="235" 
dx="0,0,0,0,-0.6,-0.6,0,0,0,2.3,-1.7,0,0,0,0,0" 
class="s1_1"
>Software Testing</text>

<path d="M1114.2,230.7c0,-46.1,-37.4,-83.6,-83.6,-83.6c-46.2,0,-83.6,37.5,-83.6,83.6c0,46.2,37.4,83.7,83.6,83.7c46.2,0,83.6,-37.5,83.6,-83.7Z" class="g2_1" />
<g fill="#333333" >
<use xlink:href="#f0_2" transform="matrix(14.3,0,0,14.3,981.3,236.1)" />
<use xlink:href="#f0_d" transform="matrix(14.3,0,0,14.3,999.1,236.1)" />
<use xlink:href="#f0_i" transform="matrix(14.3,0,0,14.3,1010.7,236.1)" />
<use xlink:href="#f0_7" transform="matrix(14.3,0,0,14.3,1023.1,236.1)" />
<use xlink:href="#f0_e" transform="matrix(14.3,0,0,14.3,1034.3,236.1)" />
<use xlink:href="#f0_6" transform="matrix(14.3,0,0,14.3,1044.4,236.1)" />
<use xlink:href="#f0_9" transform="matrix(14.3,0,0,14.3,1056.4,236.1)" />
<use xlink:href="#f0_7" transform="matrix(14.3,0,0,14.3,1068.7,236.1)" />
</g>
<text 
x="981" 
y="236" 
dx="0,0,-0.7,-0.7,0,0,0,0" 
class="s2_1"
>Coverage</text>

<path d="M856.3,183.4c11.2,30.6,11.2,64.1,0,94.7c11.9,-32.5,43,-40,77.7,-40l0,-14.7c-34.7,0,-65.8,-7.5,-77.7,-40ZM934,238.1l-28.8,0l0,-14.7l28.8,0l0,14.7Zm18,-36c-6.7,18.5,-6.7,38.8,0,57.2c-7.1,-19.6,-25.9,-21.2,-46.8,-21.2l0,-14.7c20.9,0,39.7,-1.6,46.8,-21.3Z" class="g3_1" />
<path d="M1345.5,93.8c0,-42.9,-34.7,-77.7,-77.6,-77.7c-42.9,0,-77.6,34.8,-77.6,77.7c0,42.8,34.7,77.6,77.6,77.6c42.9,0,77.6,-34.8,77.6,-77.6Z" class="g2_1" />
<g fill="#333333" >
<use xlink:href="#f1_7" transform="matrix(10,0,0,10,1228,99)" />
<use xlink:href="#f1_o" transform="matrix(10,0,0,10,1240,99)" />
<use xlink:href="#f1_e" transform="matrix(10,0,0,10,1247.2,99)" />
<use xlink:href="#f1_d" transform="matrix(10,0,0,10,1255.2,99)" />
<use xlink:href="#f1_h" transform="matrix(10,0,0,10,1264.9,99)" />
<use xlink:href="#f1_c" transform="matrix(10,0,0,10,1269.8,99)" />
<use xlink:href="#f1_q" transform="matrix(10,0,0,10,1277.6,99)" />
<use xlink:href="#f1_h" transform="matrix(10,0,0,10,1284.4,99)" />
<use xlink:href="#f1_l" transform="matrix(10,0,0,10,1289.2,99)" />
<use xlink:href="#f1_k" transform="matrix(10,0,0,10,1298,99)" />
</g>
<text 
x="1228" 
y="99" 
dx="0,0,0,0,0,0,0,0,0,0" 
class="s3_1"
>Prediction</text>

<path d="M1084.6,166.6c15,12.6,25.2,30.1,28.6,49.5c-3.7,-20.6,11.5,-31.9,29.6,-42.3L1136.1,162c-18.1,10.5,-35.5,18,-51.5,4.6Zm78.7,-20.3L1136.1,162l6.7,11.8L1170.1,158Zm27.8,-38.9c3.2,18,12.6,34.3,26.6,46c-14.9,-12.5,-30.8,-5.1,-47.6,4.6l-6.8,-11.7c16.8,-9.7,31.2,-19.8,27.8,-38.9Z" class="g3_1" />
<path d="M1365.7,324.5c0,-42.9,-34.8,-77.7,-77.6,-77.7c-42.9,0,-77.7,34.8,-77.7,77.7c0,42.8,34.8,77.6,77.7,77.6c42.8,0,77.6,-34.8,77.6,-77.6Z" class="g2_1" />
<g fill="#333333" >
<use xlink:href="#f1_a" transform="matrix(10,0,0,10,1247.2,329.7)" />
<use xlink:href="#f1_e" transform="matrix(10,0,0,10,1257.9,329.7)" />
<use xlink:href="#f1_p" transform="matrix(10,0,0,10,1265.9,329.7)" />
<use xlink:href="#f1_q" transform="matrix(10,0,0,10,1272.8,329.7)" />
<use xlink:href="#f1_e" transform="matrix(10,0,0,10,1279.6,329.7)" />
<use xlink:href="#f1_d" transform="matrix(10,0,0,10,1287.7,329.7)" />
<use xlink:href="#f1_k" transform="matrix(10,0,0,10,1297.4,329.7)" />
<use xlink:href="#f1_e" transform="matrix(10,0,0,10,1307.1,329.7)" />
<use xlink:href="#f1_p" transform="matrix(10,0,0,10,1315.1,329.7)" />
<use xlink:href="#f1_p" transform="matrix(10,0,0,10,1322,329.7)" />
</g>
<text 
x="1247" 
y="329" 
dx="0,-1.5,0,0,0,0,0,0,0,0" 
class="s3_1"
>Testedness</text>

<path d="M1114.3,230.8c0,19.6,-6.9,38.7,-19.5,53.7c13.4,-16,31.8,-11.6,51.4,-4.4l4.7,-12.8c-19.7,-7.2,-36.6,-15.6,-36.6,-36.5Zm66.5,47.4l-29.9,-10.9l-4.7,12.8l29.9,10.8Zm47.6,-3.7c-11.7,14,-18.1,31.6,-18.1,49.9c0,-19.4,-15.9,-26.8,-34.2,-33.5l4.7,-12.7c18.2,6.6,35.1,11.2,47.6,-3.7Z" class="g3_1" />
<path d="M812.5,535.2c0,-47.7,-38.6,-86.4,-86.3,-86.4c-47.7,0,-86.3,38.7,-86.3,86.4c0,47.6,38.6,86.3,86.3,86.3c47.7,0,86.3,-38.7,86.3,-86.3Z" class="g2_1" />
<g fill="#333333" >
<use xlink:href="#f0_3" transform="matrix(14.3,0,0,14.3,675.6,526.9)" />
<use xlink:href="#f0_h" transform="matrix(14.3,0,0,14.3,699,526.9)" />
<use xlink:href="#f0_g" transform="matrix(14.3,0,0,14.3,712.7,526.9)" />
<use xlink:href="#f0_6" transform="matrix(14.3,0,0,14.3,722.3,526.9)" />
<use xlink:href="#f0_g" transform="matrix(14.3,0,0,14.3,734.3,526.9)" />
<use xlink:href="#f0_a" transform="matrix(14.3,0,0,14.3,743.9,526.9)" />
<use xlink:href="#f0_d" transform="matrix(14.3,0,0,14.3,750.7,526.9)" />
<use xlink:href="#f0_c" transform="matrix(14.3,0,0,14.3,763.1,526.9)" />
<use xlink:href="#f0_1" transform="matrix(14.3,0,0,14.3,681,554.3)" />
</g>
<text 
x="675" 
y="526" 
dx="0,0,0,0,0,0,0,0" 
class="s2_1"
>Mutation</text>

<g fill="#333333" >
<use xlink:href="#f0_c" transform="matrix(14.3,0,0,14.3,699.6,554.3)" />
<use xlink:href="#f0_6" transform="matrix(14.3,0,0,14.3,713.3,554.3)" />
<use xlink:href="#f0_b" transform="matrix(14.3,0,0,14.3,725.3,554.3)" />
<use xlink:href="#f0_k" transform="matrix(14.3,0,0,14.3,732.1,554.3)" />
<use xlink:href="#f0_f" transform="matrix(14.3,0,0,14.3,745.1,554.3)" />
<use xlink:href="#f0_a" transform="matrix(14.3,0,0,14.3,754.8,554.3)" />
<use xlink:href="#f0_f" transform="matrix(14.3,0,0,14.3,761.7,554.3)" />
</g>
<text 
x="680" 
y="554" 
dx="0,0,0,0,0,0,0,0" 
class="s2_1"
>Analysis</text>

<path d="M773.6,360.9C743,372,709.4,372,678.8,360.9c32.6,11.8,39.8,43,39.8,77.6l15.1,0c0,-34.6,7.3,-65.8,39.9,-77.6Zm-39.9,44.8l0,32.8l-15.1,0l0,-32.8Zm22,48.3c-19.1,-6.9,-40,-6.9,-59,0c20.2,-7.3,21.9,-26.7,21.9,-48.3l15.1,0c0,21.6,1.7,41,22,48.3Z" class="g3_1" />
<path d="M1078.1,535.2c0,-43.1,-34.9,-78,-77.9,-78c-43.1,0,-78,34.9,-78,78c0,43,34.9,77.9,78,77.9c43,0,77.9,-34.9,77.9,-77.9Z" class="g2_1" />
<g fill="#333333" >
<use xlink:href="#f1_a" transform="matrix(10,0,0,10,972.6,539)" />
<use xlink:href="#f1_g" transform="matrix(10,0,0,10,984.8,539)" />
<use xlink:href="#f1_e" transform="matrix(10,0,0,10,994.5,539)" />
<use xlink:href="#f1_l" transform="matrix(10,0,0,10,1002.5,539)" />
<use xlink:href="#f1_o" transform="matrix(10,0,0,10,1011.3,539)" />
<use xlink:href="#f1_u" transform="matrix(10,0,0,10,1018.5,539)" />
</g>
<text 
x="972" 
y="538" 
dx="0,0,0,0,0,0" 
class="s3_1"
>Theory</text>

<path d="M807.3,505.6c7,19.1,7,40,0,59.1C814.7,544.4,834.1,542,855.7,542l0,-13.7c-21.6,0,-41,-2.4,-48.4,-22.7ZM855.7,542l27.6,0l0,-13.7l-27.6,0l0,13.7Zm71.2,-33.5c-6.2,17.2,-6.2,36.1,0,53.3C920.3,543.5,902.8,542,883.3,542l0,-13.7c19.5,0,37,-1.5,43.6,-19.8Z" class="g3_1" />
<path d="M1321.6,535.2c0,-43.1,-34.9,-78,-77.9,-78c-43,0,-77.9,34.9,-77.9,78c0,43,34.9,77.9,77.9,77.9c43,0,77.9,-34.9,77.9,-77.9Z" class="g2_1" />
<g fill="#333333" >
<use xlink:href="#f1_2" transform="matrix(10,0,0,10,1184.1,539)" />
<use xlink:href="#f1_l" transform="matrix(10,0,0,10,1196.7,539)" />
<use xlink:href="#f1_r" transform="matrix(10,0,0,10,1205.5,539)" />
<use xlink:href="#f1_m" transform="matrix(10,0,0,10,1215.2,539)" />
<use xlink:href="#f1_i" transform="matrix(10,0,0,10,1224.9,539)" />
<use xlink:href="#f1_h" transform="matrix(10,0,0,10,1229.8,539)" />
<use xlink:href="#f1_k" transform="matrix(10,0,0,10,1234.7,539)" />
<use xlink:href="#f1_f" transform="matrix(10,0,0,10,1244.4,539)" />
<use xlink:href="#f1_4" transform="matrix(10,0,0,10,1259,539)" />
<use xlink:href="#f1_1" transform="matrix(10,0,0,10,1270.5,539)" />
<use xlink:href="#f1_e" transform="matrix(10,0,0,10,1280.7,539)" />
<use xlink:href="#f1_c" transform="matrix(10,0,0,10,1288.7,539)" />
<use xlink:href="#f1_q" transform="matrix(10,0,0,10,1296.5,539)" />
</g>
<text 
x="1184" 
y="538" 
dx="0,0,0,0,0,0,0,0,0,2,0,0,0,0,0" 
class="s3_1"
>Coupling Effect</text>

<path d="M1073.4,508.5c6.3,17.2,6.3,36.1,0,53.3c6.7,-18.3,24.2,-19.8,43.7,-19.8l0,-13.7c-19.5,0,-37,-1.5,-43.7,-19.8Zm43.7,33.5l9.7,0l0,-13.7l-9.7,0l0,13.7Zm53.4,-33.5c-6.3,17.2,-6.3,36.1,0,53.3C1163.8,543.5,1146.3,542,1126.8,542l0,-13.7c19.5,0,37,-1.5,43.7,-19.8Z" class="g3_1" />
<path d="M1235.9,721.7c0,-43.7,-35.5,-79.2,-79.2,-79.2c-43.7,0,-79.2,35.5,-79.2,79.2c0,43.7,35.5,79.2,79.2,79.2c43.7,0,79.2,-35.5,79.2,-79.2Z" class="g2_1" />
<g fill="#333333" >
<use xlink:href="#f1_2" transform="matrix(10,0,0,10,1114.2,716.3)" />
<use xlink:href="#f1_l" transform="matrix(10,0,0,10,1126.8,716.3)" />
<use xlink:href="#f1_j" transform="matrix(10,0,0,10,1135.6,716.3)" />
<use xlink:href="#f1_m" transform="matrix(10,0,0,10,1150.1,716.3)" />
<use xlink:href="#f1_e" transform="matrix(10,0,0,10,1160.4,716.3)" />
<use xlink:href="#f1_q" transform="matrix(10,0,0,10,1168.4,716.3)" />
<use xlink:href="#f1_e" transform="matrix(10,0,0,10,1175.2,716.3)" />
<use xlink:href="#f1_k" transform="matrix(10,0,0,10,1183.2,716.3)" />
<use xlink:href="#f1_q" transform="matrix(10,0,0,10,1192.4,716.3)" />
<use xlink:href="#f1_7" transform="matrix(10,0,0,10,1108.3,734.6)" />
</g>
<text 
x="1114" 
y="716" 
dx="0,0,0,0,0.5,0,0,0,-0.5" 
class="s3_1"
>Competent</text>

<g fill="#333333" >
<use xlink:href="#f1_o" transform="matrix(10,0,0,10,1120.3,734.6)" />
<use xlink:href="#f1_l" transform="matrix(10,0,0,10,1127.5,734.6)" />
<use xlink:href="#f1_f" transform="matrix(10,0,0,10,1136.2,734.6)" />
<use xlink:href="#f1_o" transform="matrix(10,0,0,10,1145,734.6)" />
<use xlink:href="#f1_b" transform="matrix(10,0,0,10,1152.2,734.6)" />
<use xlink:href="#f1_j" transform="matrix(10,0,0,10,1160.7,734.6)" />
<use xlink:href="#f1_j" transform="matrix(10,0,0,10,1175.3,734.6)" />
<use xlink:href="#f1_e" transform="matrix(10,0,0,10,1189.9,734.6)" />
<use xlink:href="#f1_o" transform="matrix(10,0,0,10,1197.9,734.6)" />
</g>
<text 
x="1108" 
y="734" 
dx="0,0,0,0,0,0,0,0,0,0" 
class="s3_1"
>Programmer</text>

<path d="M1067.9,574.4c-9.2,15.9,-23.6,28,-40.9,34.3c18.4,-6.7,30.8,5.7,43.3,20.7l10.5,-8.8c-12.6,-14.9,-22.7,-29.3,-12.9,-46.2Zm17.4,51.6l-4.5,-5.4l-10.5,8.8l4.5,5.4Zm44,21c-17.5,6.3,-32.2,18.7,-41.5,34.8c9.9,-17.2,-0.2,-31.9,-13,-47l10.5,-8.8c12.7,15.2,25.4,27.7,44,21Z" class="g3_1" />
<path d="M980.2,745c0,-43,-34.9,-77.9,-77.9,-77.9c-43,0,-77.9,34.9,-77.9,77.9c0,43.1,34.9,78,77.9,78c43,0,77.9,-34.9,77.9,-78Z" class="g2_1" />
<g fill="#333333" >
<use xlink:href="#f1_8" transform="matrix(10,0,0,10,829.5,748.8)" />
<use xlink:href="#f1_e" transform="matrix(10,0,0,10,842.6,748.8)" />
<use xlink:href="#f1_m" transform="matrix(10,0,0,10,850.7,748.8)" />
<use xlink:href="#f1_o" transform="matrix(10,0,0,10,860.4,748.8)" />
<use xlink:href="#f1_e" transform="matrix(10,0,0,10,867.6,748.8)" />
<use xlink:href="#f1_p" transform="matrix(10,0,0,10,875.6,748.8)" />
<use xlink:href="#f1_e" transform="matrix(10,0,0,10,882.5,748.8)" />
<use xlink:href="#f1_k" transform="matrix(10,0,0,10,890.5,748.8)" />
<use xlink:href="#f1_q" transform="matrix(10,0,0,10,899.8,748.8)" />
<use xlink:href="#f1_b" transform="matrix(10,0,0,10,906.6,748.8)" />
<use xlink:href="#f1_q" transform="matrix(10,0,0,10,915.1,748.8)" />
<use xlink:href="#f1_h" transform="matrix(10,0,0,10,921.9,748.8)" />
<use xlink:href="#f1_s" transform="matrix(10,0,0,10,926.8,748.8)" />
<use xlink:href="#f1_e" transform="matrix(10,0,0,10,935.5,748.8)" />
<use xlink:href="#f1_k" transform="matrix(10,0,0,10,943.5,748.8)" />
<use xlink:href="#f1_e" transform="matrix(10,0,0,10,953.3,748.8)" />
<use xlink:href="#f1_p" transform="matrix(10,0,0,10,961.3,748.8)" />
<use xlink:href="#f1_p" transform="matrix(10,0,0,10,968.2,748.8)" />
</g>
<text 
x="829" 
y="748" 
dx="0,0,0,0,0,0,0,0,-0.5,0,0,0,0,-0.5,0,0,0,0" 
class="s3_1"
>Representativeness</text>

<path d="M801.2,578.6c-10.1,17.6,-26.2,31,-45.2,38c20.3,-7.4,34.6,5.9,48.5,22.4l10.4,-8.7C801,613.7,790.4,597.3,801.2,578.6Zm30.9,72.2L814.9,630.3L804.5,639l17.1,20.5Zm43.2,20.7c-17.2,6.2,-31.6,18.4,-40.8,34.2c9.8,-16.9,-0.3,-31.3,-12.9,-46.2l10.5,-8.7c12.5,14.9,24.9,27.3,43.2,20.7Z" class="g3_1" />
<path d="M1166.8,901.6c0,-43.1,-34.9,-77.9,-77.9,-77.9c-43.1,0,-78,34.8,-78,77.9c0,43,34.9,77.9,78,77.9c43,0,77.9,-34.9,77.9,-77.9Z" class="g2_1" />
<g fill="#333333" >
<use xlink:href="#f1_9" transform="matrix(10,0,0,10,1053.5,905.4)" />
<use xlink:href="#f1_u" transform="matrix(10,0,0,10,1063.2,905.4)" />
<use xlink:href="#f1_k" transform="matrix(10,0,0,10,1072.4,905.4)" />
<use xlink:href="#f1_q" transform="matrix(10,0,0,10,1081.7,905.4)" />
<use xlink:href="#f1_b" transform="matrix(10,0,0,10,1088.5,905.4)" />
<use xlink:href="#f1_c" transform="matrix(10,0,0,10,1097,905.4)" />
<use xlink:href="#f1_q" transform="matrix(10,0,0,10,1104.8,905.4)" />
<use xlink:href="#f1_h" transform="matrix(10,0,0,10,1111.6,905.4)" />
<use xlink:href="#f1_c" transform="matrix(10,0,0,10,1116.4,905.4)" />
</g>
<text 
x="1053" 
y="905" 
dx="0,0,0,-0.5,0,0,0,0,0" 
class="s3_1"
>Syntactic</text>

<path d="M975.8,771.9c-6.3,17.2,-18.4,31.7,-34.3,40.9c16.9,-9.8,31.3,0.3,46.2,12.8l8.8,-10.4c-14.9,-12.5,-27.4,-25,-20.7,-43.3Zm27.6,49l-6.9,-5.7l-8.8,10.4l6.9,5.8Zm46.2,12.9c-15.9,9.2,-28,23.6,-34.3,40.9c6.7,-18.4,-5.8,-30.8,-20.7,-43.3l8.8,-10.5c14.9,12.6,29.3,22.7,46.2,12.9Z" class="g3_1" />
<path d="M979.9,988.6c0,-42.9,-34.7,-77.7,-77.6,-77.7c-42.9,0,-77.6,34.8,-77.6,77.7c0,42.8,34.7,77.6,77.6,77.6c42.9,0,77.6,-34.8,77.6,-77.6Z" class="g2_1" />
<g fill="#333333" >
<use xlink:href="#f1_9" transform="matrix(10,0,0,10,867.5,993.9)" />
<use xlink:href="#f1_e" transform="matrix(10,0,0,10,877.3,993.9)" />
<use xlink:href="#f1_j" transform="matrix(10,0,0,10,885.3,993.9)" />
<use xlink:href="#f1_b" transform="matrix(10,0,0,10,899.9,993.9)" />
<use xlink:href="#f1_k" transform="matrix(10,0,0,10,908.4,993.9)" />
<use xlink:href="#f1_q" transform="matrix(10,0,0,10,917.6,993.9)" />
<use xlink:href="#f1_h" transform="matrix(10,0,0,10,924.4,993.9)" />
<use xlink:href="#f1_c" transform="matrix(10,0,0,10,929.3,993.9)" />
</g>
<text 
x="867" 
y="993" 
dx="0,0,0,0,0,-0.5,0,0" 
class="s3_1"
>Semantic</text>

<path d="M929,818.3c-17.3,6.2,-36.1,6.2,-53.4,0c18.4,6.6,19.9,24.2,19.9,43.6l13.6,0c0,-19.4,1.5,-37,19.9,-43.6Zm-19.9,53.8l0,-10.2l-13.6,0l0,10.2Zm19.8,43.5c-17.2,-6.2,-36,-6.2,-53.1,0C894,909,895.5,891.5,895.5,872.1l13.6,0c0,19.4,1.5,36.9,19.8,43.5Z" class="g3_1" />
<path d="M756.5,805c0,-43.1,-34.8,-78,-77.9,-78c-43,0,-77.9,34.9,-77.9,78c0,43,34.9,77.9,77.9,77.9c43.1,0,77.9,-34.9,77.9,-77.9Z" class="g2_1" />
<g fill="#333333" >
<use xlink:href="#f1_3" transform="matrix(10,0,0,10,638.3,808.8)" />
<use xlink:href="#f1_r" transform="matrix(10,0,0,10,651.7,808.8)" />
<use xlink:href="#f1_m" transform="matrix(10,0,0,10,661.5,808.8)" />
<use xlink:href="#f1_i" transform="matrix(10,0,0,10,671.2,808.8)" />
<use xlink:href="#f1_h" transform="matrix(10,0,0,10,676,808.8)" />
<use xlink:href="#f1_c" transform="matrix(10,0,0,10,680.9,808.8)" />
<use xlink:href="#f1_b" transform="matrix(10,0,0,10,688.7,808.8)" />
<use xlink:href="#f1_q" transform="matrix(10,0,0,10,697.2,808.8)" />
<use xlink:href="#f1_e" transform="matrix(10,0,0,10,704,808.8)" />
<use xlink:href="#f1_p" transform="matrix(10,0,0,10,712,808.8)" />
</g>
<text 
x="638" 
y="808" 
dx="0,0,0,0,0,0,0,0,0,0" 
class="s3_1"
>Duplicates</text>

<path d="M741.2,620.3c-20,3.5,-40.6,-0.1,-58.2,-10.3c18.7,10.8,17.7,30.3,14,51.6l13.4,2.4c3.8,-21.3,9.5,-40,30.8,-43.7ZM705.6,691l4.8,-27L697,661.6l-4.8,27Zm12,46.4C701.7,728.2,683.1,725,665.1,728.1c19.2,-3.3,23.7,-20.3,27.1,-39.5l13.4,2.4c-3.3,19.1,-4.9,36.7,12,46.4Z" class="g3_1" />
<path d="M798.8,1044.8c0,-43,-34.9,-77.9,-77.9,-77.9c-43,0,-77.9,34.9,-77.9,77.9c0,43.1,34.9,77.9,77.9,77.9c43,0,77.9,-34.8,77.9,-77.9Z" class="g2_1" />
<g fill="#333333" >
<use xlink:href="#f1_4" transform="matrix(10,0,0,10,645.2,1048.6)" />
<use xlink:href="#f1_n" transform="matrix(10,0,0,10,656.7,1048.6)" />
<use xlink:href="#f1_r" transform="matrix(10,0,0,10,665.9,1048.6)" />
<use xlink:href="#f1_h" transform="matrix(10,0,0,10,675.6,1048.6)" />
<use xlink:href="#f1_s" transform="matrix(10,0,0,10,680.5,1048.6)" />
<use xlink:href="#f1_b" transform="matrix(10,0,0,10,688.8,1048.6)" />
<use xlink:href="#f1_i" transform="matrix(10,0,0,10,697.3,1048.6)" />
<use xlink:href="#f1_e" transform="matrix(10,0,0,10,702.1,1048.6)" />
<use xlink:href="#f1_k" transform="matrix(10,0,0,10,710.2,1048.6)" />
<use xlink:href="#f1_q" transform="matrix(10,0,0,10,719.4,1048.6)" />
<use xlink:href="#f1_6" transform="matrix(10,0,0,10,732,1048.6)" />
<use xlink:href="#f1_r" transform="matrix(10,0,0,10,748.7,1048.6)" />
<use xlink:href="#f1_q" transform="matrix(10,0,0,10,758.4,1048.6)" />
<use xlink:href="#f1_b" transform="matrix(10,0,0,10,765.2,1048.6)" />
<use xlink:href="#f1_k" transform="matrix(10,0,0,10,773.7,1048.6)" />
<use xlink:href="#f1_q" transform="matrix(10,0,0,10,782.9,1048.6)" />
<use xlink:href="#f1_p" transform="matrix(10,0,0,10,789.7,1048.6)" />
</g>
<text 
x="645" 
y="1048" 
dx="0,0,0,0,0,-1,0,0,0,-0.5,0,2,0,0,0,0,-0.5,0" 
class="s3_1"
>Equivalent Mutants</text>

<path d="M717.6,872.6c-15.9,9.1,-34.5,12.4,-52.5,9.2c19.2,3.4,23.7,20.4,27.1,39.6L705.6,919c-3.3,-19.2,-4.9,-36.7,12,-46.4Zm-10.3,55.8L705.6,919l-13.4,2.4l1.7,9.4ZM734.4,968c-18,-3.2,-36.6,0.1,-52.5,9.2c16.9,-9.7,15.4,-27.2,12,-46.4l13.4,-2.4c3.4,19.2,7.9,36.2,27.1,39.6Z" class="g3_1" />
<path d="M600.9,991.5c0,-43.5,-35.3,-78.8,-78.8,-78.8c-43.6,0,-78.9,35.3,-78.9,78.8c0,43.6,35.3,78.9,78.9,78.9c43.5,0,78.8,-35.3,78.8,-78.9Z" class="g2_1" />
<g fill="#333333" >
<use xlink:href="#f1_8" transform="matrix(10,0,0,10,479.8,987.7)" />
<use xlink:href="#f1_e" transform="matrix(10,0,0,10,492.9,987.7)" />
<use xlink:href="#f1_d" transform="matrix(10,0,0,10,500.9,987.7)" />
<use xlink:href="#f1_r" transform="matrix(10,0,0,10,510.7,987.7)" />
<use xlink:href="#f1_k" transform="matrix(10,0,0,10,520.4,987.7)" />
<use xlink:href="#f1_d" transform="matrix(10,0,0,10,530.1,987.7)" />
<use xlink:href="#f1_b" transform="matrix(10,0,0,10,539.8,987.7)" />
<use xlink:href="#f1_k" transform="matrix(10,0,0,10,548.3,987.7)" />
<use xlink:href="#f1_q" transform="matrix(10,0,0,10,557.6,987.7)" />
<use xlink:href="#f1_6" transform="matrix(10,0,0,10,489.8,1005.9)" />
</g>
<text 
x="479" 
y="987" 
dx="0,0,0,0,0,0,0,0,-0.5" 
class="s3_1"
>Redundant</text>

<g fill="#333333" >
<use xlink:href="#f1_r" transform="matrix(10,0,0,10,506.4,1005.9)" />
<use xlink:href="#f1_q" transform="matrix(10,0,0,10,516.1,1005.9)" />
<use xlink:href="#f1_b" transform="matrix(10,0,0,10,522.9,1005.9)" />
<use xlink:href="#f1_k" transform="matrix(10,0,0,10,531.4,1005.9)" />
<use xlink:href="#f1_q" transform="matrix(10,0,0,10,540.7,1005.9)" />
<use xlink:href="#f1_p" transform="matrix(10,0,0,10,547.5,1005.9)" />
</g>
<text 
x="489" 
y="1005" 
dx="0,0,0,0,0,-0.5,0" 
class="s3_1"
>Mutants</text>

<path d="M651.7,878.5c-17.2,-6.3,-31.6,-18.4,-40.8,-34.3c9.7,16.9,-0.4,31.3,-12.9,46.2l10.5,8.8c12.5,-14.9,24.9,-27.4,43.2,-20.7Zm-48,26.4l4.8,-5.7L598,890.4l-4.8,5.7Zm-13,46.8c-9.3,-16,-23.9,-28.3,-41.3,-34.7c18.5,6.8,31.1,-5.7,43.8,-20.9l10.5,8.8c-12.7,15.1,-22.9,29.7,-13,46.8Z" class="g3_1" />
<path d="M566.9,672.2c0,-43.1,-34.9,-78,-78,-78c-43,0,-77.9,34.9,-77.9,78c0,43,34.9,77.9,77.9,77.9c43.1,0,78,-34.9,78,-77.9Z" class="g2_1" />
<g fill="#333333" >
<use xlink:href="#f1_2" transform="matrix(10,0,0,10,438.5,676)" />
<use xlink:href="#f1_l" transform="matrix(10,0,0,10,451.1,676)" />
<use xlink:href="#f1_j" transform="matrix(10,0,0,10,459.9,676)" />
<use xlink:href="#f1_m" transform="matrix(10,0,0,10,474.5,676)" />
<use xlink:href="#f1_r" transform="matrix(10,0,0,10,484.2,676)" />
<use xlink:href="#f1_q" transform="matrix(10,0,0,10,493.9,676)" />
<use xlink:href="#f1_b" transform="matrix(10,0,0,10,500.7,676)" />
<use xlink:href="#f1_q" transform="matrix(10,0,0,10,509.2,676)" />
<use xlink:href="#f1_h" transform="matrix(10,0,0,10,516,676)" />
<use xlink:href="#f1_l" transform="matrix(10,0,0,10,520.9,676)" />
<use xlink:href="#f1_k" transform="matrix(10,0,0,10,529.6,676)" />
</g>
<text 
x="438" 
y="675" 
dx="0,0,0,0,0,0,0,0,0,0,0" 
class="s3_1"
>Computation</text>

<path d="M670.5,601.4c-15.6,-13,-26,-31.1,-29.6,-51.1c3.8,21.2,-11.8,33,-30.5,43.8l6.8,11.8c18.7,-10.7,36.7,-18.3,53.3,-4.5Zm-76.6,18l23.3,-13.5l-6.8,-11.8l-23.3,13.5Zm-27.9,39c-3.1,-18,-12.6,-34.4,-26.6,-46.2c14.9,12.6,30.8,5.1,47.7,-4.6l6.8,11.8c-16.8,9.7,-31.2,19.8,-27.9,39Z" class="g3_1" />
<path d="M441.1,880.9c0,-42.9,-34.7,-77.6,-77.6,-77.6c-42.9,0,-77.6,34.7,-77.6,77.6c0,42.9,34.7,77.6,77.6,77.6c42.9,0,77.6,-34.7,77.6,-77.6Z" class="g2_1" />
<g fill="#333333" >
<use xlink:href="#f1_9" transform="matrix(10,0,0,10,332.5,886.1)" />
<use xlink:href="#f1_j" transform="matrix(10,0,0,10,342.2,886.1)" />
<use xlink:href="#f1_b" transform="matrix(10,0,0,10,356.8,886.1)" />
<use xlink:href="#f1_o" transform="matrix(10,0,0,10,365.3,886.1)" />
<use xlink:href="#f1_q" transform="matrix(10,0,0,10,372.5,886.1)" />
<use xlink:href="#f1_e" transform="matrix(10,0,0,10,379.3,886.1)" />
<use xlink:href="#f1_o" transform="matrix(10,0,0,10,387.3,886.1)" />
</g>
<text 
x="332" 
y="886" 
dx="0,0,0,0,0,0,0" 
class="s3_1"
>Smarter</text>

<path d="M474,748.7c-17.9,-3.5,-34.1,-13.2,-45.7,-27.5c12.3,15.2,4.6,31,-5.4,47.7l11.6,7C444.6,759.2,454.9,745,474,748.7Zm-44.6,35.8l5.1,-8.6l-11.6,-7l-5.2,8.6Zm-5.5,47.4C412.4,817.7,396.3,808.1,378.4,804.6c19,3.7,29.3,-10.5,39.3,-27.1l11.7,7c-10,16.6,-17.7,32.3,-5.5,47.4Z" class="g3_1" />
<path d="M326,710.2c0,-42.8,-34.7,-77.6,-77.6,-77.6c-42.9,0,-77.6,34.8,-77.6,77.6c0,42.9,34.7,77.7,77.6,77.7c42.9,0,77.6,-34.8,77.6,-77.7Z" class="g2_1" />
<g fill="#333333" >
<use xlink:href="#f1_5" transform="matrix(10,0,0,10,224.9,715.5)" />
<use xlink:href="#f1_b" transform="matrix(10,0,0,10,234.4,715.5)" />
<use xlink:href="#f1_p" transform="matrix(10,0,0,10,242.9,715.5)" />
<use xlink:href="#f1_q" transform="matrix(10,0,0,10,249.9,715.5)" />
<use xlink:href="#f1_e" transform="matrix(10,0,0,10,256.7,715.5)" />
<use xlink:href="#f1_o" transform="matrix(10,0,0,10,264.7,715.5)" />
</g>
<text 
x="224" 
y="715" 
dx="0,-1.5,0,0,0,0" 
class="s3_1"
>Faster</text>

<path d="M420.7,709.9c-8.9,-16,-11.9,-34.6,-8.4,-52.6c-3.7,19.1,-20.8,23.4,-40,26.4l2.1,13.5c19.3,-3.1,36.8,-4.3,46.3,12.7ZM364.6,698.7l9.8,-1.5l-2.1,-13.5l-9.9,1.6ZM324.7,725c3.5,-17.9,0.5,-36.4,-8.3,-52.4c9.4,17,26.9,15.7,46,12.7l2.2,13.4c-19.2,3.1,-36.2,7.3,-39.9,26.3Z" class="g3_1" />
<path d="M382.7,512.4c0,-42.9,-34.7,-77.7,-77.6,-77.7c-42.9,0,-77.6,34.8,-77.6,77.7c0,42.8,34.7,77.6,77.6,77.6c42.9,0,77.6,-34.8,77.6,-77.6Z" class="g2_1" />
<g fill="#333333" >
<use xlink:href="#f1_5" transform="matrix(10,0,0,10,282.6,517.6)" />
<use xlink:href="#f1_e" transform="matrix(10,0,0,10,292.2,517.6)" />
<use xlink:href="#f1_t" transform="matrix(10,0,0,10,300.2,517.6)" />
<use xlink:href="#f1_e" transform="matrix(10,0,0,10,312.4,517.6)" />
<use xlink:href="#f1_o" transform="matrix(10,0,0,10,320.4,517.6)" />
</g>
<text 
x="282" 
y="517" 
dx="0,-1.5,0,-0.5,0" 
class="s3_1"
>Fewer</text>

<path d="M415.9,644c6.6,-17.1,18.9,-31.4,35,-40.2c-17.1,9.4,-31.3,-0.9,-46,-13.7L396,600.3c14.7,12.8,26.9,25.5,19.9,43.7ZM388.8,594.1l7.2,6.3l8.9,-10.3l-7.2,-6.2ZM343,580.5c16,-8.8,28.3,-23,34.9,-40.1c-7,18.2,5.2,30.8,19.8,43.5l-8.9,10.2C374.2,581.4,360,571.1,343,580.5Z" class="g3_1" />
<path d="M505.1,230.7c0,-45.9,-37.3,-83.2,-83.3,-83.2c-46,0,-83.3,37.3,-83.3,83.2c0,46,37.3,83.3,83.3,83.3c46,0,83.3,-37.3,83.3,-83.3Z" class="g2_1" />
<g fill="#333333" >
<use xlink:href="#f0_5" transform="matrix(14.3,0,0,14.3,364.4,238.4)" />
<use xlink:href="#f0_7" transform="matrix(14.3,0,0,14.3,379.5,238.4)" />
<use xlink:href="#f0_f" transform="matrix(14.3,0,0,14.3,390.8,238.4)" />
<use xlink:href="#f0_g" transform="matrix(14.3,0,0,14.3,400.5,238.4)" />
<use xlink:href="#f0_f" transform="matrix(14.3,0,0,14.3,418.3,238.4)" />
<use xlink:href="#f0_h" transform="matrix(14.3,0,0,14.3,428,238.4)" />
<use xlink:href="#f0_a" transform="matrix(14.3,0,0,14.3,441.7,238.4)" />
<use xlink:href="#f0_g" transform="matrix(14.3,0,0,14.3,448.6,238.4)" />
<use xlink:href="#f0_7" transform="matrix(14.3,0,0,14.3,458.2,238.4)" />
<use xlink:href="#f0_f" transform="matrix(14.3,0,0,14.3,469.4,238.4)" />
</g>
<text 
x="364" 
y="238" 
dx="0,-2.1,0,0,0,2.7,0,0,0,0,0" 
class="s2_1"
>Test suites</text>

<path d="M596,278.1C584.9,247.5,584.9,214,596,183.4c-11.8,32.5,-42.9,40.1,-77.6,40.1l0,14.5c34.7,0,65.8,7.6,77.6,40.1ZM546.7,238l-28.3,0l0,-14.5l28.3,0ZM500,259.2c6.7,-18.4,6.7,-38.5,0,-56.9c7.2,19.5,25.9,21.2,46.7,21.2l0,14.5c-20.8,0,-39.5,1.7,-46.7,21.2Z" class="g3_1" />
<path d="M262.4,367.7c0,-43,-34.9,-77.9,-77.9,-77.9c-43,0,-77.9,34.9,-77.9,77.9c0,43.1,34.9,78,77.9,78c43,0,77.9,-34.9,77.9,-78Z" class="g2_1" />
<g fill="#333333" >
<use xlink:href="#f1_9" transform="matrix(10,0,0,10,127.6,371.5)" />
<use xlink:href="#f1_t" transform="matrix(10,0,0,10,137.3,371.5)" />
<use xlink:href="#f1_b" transform="matrix(10,0,0,10,149.5,371.5)" />
<use xlink:href="#f1_o" transform="matrix(10,0,0,10,158,371.5)" />
<use xlink:href="#f1_j" transform="matrix(10,0,0,10,165.2,371.5)" />
<use xlink:href="#f1_a" transform="matrix(10,0,0,10,185.6,371.5)" />
<use xlink:href="#f1_e" transform="matrix(10,0,0,10,196.3,371.5)" />
<use xlink:href="#f1_p" transform="matrix(10,0,0,10,204.4,371.5)" />
<use xlink:href="#f1_q" transform="matrix(10,0,0,10,211.3,371.5)" />
<use xlink:href="#f1_h" transform="matrix(10,0,0,10,218.1,371.5)" />
<use xlink:href="#f1_k" transform="matrix(10,0,0,10,222.9,371.5)" />
<use xlink:href="#f1_f" transform="matrix(10,0,0,10,232.7,371.5)" />
</g>
<text 
x="127" 
y="371" 
dx="0,0,-0.5,0,0,0,2,-1.4,0,0,0,0,0" 
class="s3_1"
>Swarm Testing</text>

<path d="M368,294.7C353,282.1,342.9,264.6,339.5,245.3C343.1,265.8,328,277,310,287.4l6.8,11.8c18,-10.4,35.3,-17.9,51.2,-4.5ZM289.5,315l27.3,-15.8L310,287.4l-27.4,15.8Zm-27.9,39c-3.2,-18,-12.7,-34.4,-26.7,-46.1c14.9,12.5,30.9,5,47.7,-4.7l6.9,11.8c-16.9,9.7,-31.3,19.8,-27.9,39Z" class="g3_1" />
<path d="M241.9,137c0,-42.8,-34.7,-77.6,-77.6,-77.6C121.4,59.4,86.7,94.2,86.7,137c0,42.9,34.7,77.7,77.6,77.7c42.9,0,77.6,-34.8,77.6,-77.7Z" class="g2_1" />
<g fill="#333333" >
<use xlink:href="#f1_8" transform="matrix(10,0,0,10,125.1,142.3)" />
<use xlink:href="#f1_e" transform="matrix(10,0,0,10,138.2,142.3)" />
<use xlink:href="#f1_d" transform="matrix(10,0,0,10,146.2,142.3)" />
<use xlink:href="#f1_r" transform="matrix(10,0,0,10,155.9,142.3)" />
<use xlink:href="#f1_c" transform="matrix(10,0,0,10,165.7,142.3)" />
<use xlink:href="#f1_q" transform="matrix(10,0,0,10,173.4,142.3)" />
<use xlink:href="#f1_h" transform="matrix(10,0,0,10,180.2,142.3)" />
<use xlink:href="#f1_l" transform="matrix(10,0,0,10,185.1,142.3)" />
<use xlink:href="#f1_k" transform="matrix(10,0,0,10,193.9,142.3)" />
</g>
<text 
x="125" 
y="142" 
dx="0,0,0,0,0,0,0,0,0" 
class="s3_1"
>Reduction</text>

<path d="M338.4,230.7c0,-19.6,6.9,-38.5,19.5,-53.5c-13.4,15.9,-31.7,11.5,-51.3,4.4L302,194.4c19.5,7.1,36.4,15.5,36.4,36.3ZM271.6,183.3L302,194.4l4.6,-12.8L276.2,170.5ZM223.9,187c11.8,-14,18.2,-31.7,18.2,-49.9c0,19.4,15.9,26.8,34.1,33.4l-4.6,12.8c-18.3,-6.6,-35.2,-11.2,-47.7,3.7Z" class="g3_1" />
<path d="M119.6,298.1l-98,0c-3.4,0,-6.1,2.7,-6.1,6.1l0,16.9c0,3.3,2.7,6.1,6.1,6.1l98,0c3.4,0,6.1,-2.8,6.1,-6.1l0,-16.9c0,-3.4,-2.7,-6.1,-6.1,-6.1Z" class="g4_1" />
<g fill="#000000" >
<use xlink:href="#f2_1" transform="matrix(9.3,0,0,9.3,20,321.5)" />
<use xlink:href="#f3_3" transform="matrix(9.3,0,0,9.3,29.1,321.5)" />
</g>
<text 
x="19" 
y="321" 
dx="0" 
class="s4_1"
>•</text>

<g fill="#000000" >
<use xlink:href="#f3_1" transform="matrix(9.3,0,0,9.3,36,321.5)" />
<use xlink:href="#f3_2" transform="matrix(9.3,0,0,9.3,43,321.5)" />
<use xlink:href="#f3_6" transform="matrix(9.3,0,0,9.3,50,321.5)" />
<use xlink:href="#f3_c" transform="matrix(9.3,0,0,9.3,61.6,321.5)" />
<use xlink:href="#f3_f" transform="matrix(9.3,0,0,9.3,66.6,321.5)" />
<use xlink:href="#f3_f" transform="matrix(9.3,0,0,9.3,74.4,321.5)" />
<use xlink:href="#f3_g" transform="matrix(9.3,0,0,9.3,82.1,321.5)" />
<use xlink:href="#f3_8" transform="matrix(9.3,0,0,9.3,91.1,321.5)" />
</g>
<text 
x="29" 
y="321" 
dx="0,0,0,0,0,1.1,0,0,0,-1.2" 
class="s5_1"
>2016 ISSTA</text>

<path d="M405.1,67.6l-160.4,0c-3.3,0,-6,2.7,-6,6.1l0,16.9c0,3.4,2.7,6.1,6,6.1l160.4,0c3.3,0,6.1,-2.7,6.1,-6.1l0,-16.9c0,-3.4,-2.8,-6.1,-6.1,-6.1Z" class="g4_1" />
<g fill="#000000" >
<use xlink:href="#f2_1" transform="matrix(9.3,0,0,9.3,243.1,91.1)" />
<use xlink:href="#f3_3" transform="matrix(9.3,0,0,9.3,252.2,91.1)" />
</g>
<text 
x="243" 
y="91" 
dx="0" 
class="s4_1"
>•</text>

<g fill="#000000" >
<use xlink:href="#f3_1" transform="matrix(9.3,0,0,9.3,259.2,91.1)" />
<use xlink:href="#f3_2" transform="matrix(9.3,0,0,9.3,266.2,91.1)" />
<use xlink:href="#f3_6" transform="matrix(9.3,0,0,9.3,273.1,91.1)" />
<use xlink:href="#f3_8" transform="matrix(9.3,0,0,9.3,284.7,91.1)" />
<use xlink:href="#f3_f" transform="matrix(9.3,0,0,9.3,295.2,91.1)" />
<use xlink:href="#f3_a" transform="matrix(9.3,0,0,9.3,303,91.1)" />
</g>
<text 
x="252" 
y="91" 
dx="0,0,0,0,0,1.1,0,0" 
class="s5_1"
>2016 ASE</text>

<path d="M1508.7,24.3l-160.4,0c-3.4,0,-6.1,2.8,-6.1,6.1l0,16.9c0,3.4,2.7,6.1,6.1,6.1l160.4,0c3.3,0,6,-2.7,6,-6.1l0,-16.9c0,-3.3,-2.7,-6.1,-6,-6.1Z" class="g4_1" />
<g fill="#000000" >
<use xlink:href="#f2_1" transform="matrix(9.3,0,0,9.3,1346.6,47.8)" />
<use xlink:href="#f3_3" transform="matrix(9.3,0,0,9.3,1355.8,47.8)" />
</g>
<text 
x="1346" 
y="47" 
dx="0" 
class="s4_1"
>•</text>

<g fill="#000000" >
<use xlink:href="#f3_1" transform="matrix(9.3,0,0,9.3,1362.7,47.8)" />
<use xlink:href="#f3_2" transform="matrix(9.3,0,0,9.3,1369.7,47.8)" />
<use xlink:href="#f3_4" transform="matrix(9.3,0,0,9.3,1376.7,47.8)" />
<use xlink:href="#f3_c" transform="matrix(9.3,0,0,9.3,1388.3,47.8)" />
<use xlink:href="#f3_9" transform="matrix(9.3,0,0,9.3,1393.3,47.8)" />
<use xlink:href="#f3_f" transform="matrix(9.3,0,0,9.3,1403.4,47.8)" />
<use xlink:href="#f3_a" transform="matrix(9.3,0,0,9.3,1411.2,47.8)" />
</g>
<text 
x="1355" 
y="47" 
dx="0,0,0,0,0,1.1,0,0,0" 
class="s5_1"
>2014 ICSE</text>

<path d="M1528.8,255l-160.3,0c-3.4,0,-6.1,2.8,-6.1,6.1l0,16.9c0,3.4,2.7,6.1,6.1,6.1l160.3,0c3.4,0,6.1,-2.7,6.1,-6.1l0,-16.9c0,-3.3,-2.7,-6.1,-6.1,-6.1Z" class="g4_1" />
<g fill="#000000" >
<use xlink:href="#f2_1" transform="matrix(9.3,0,0,9.3,1366.8,278.5)" />
<use xlink:href="#f3_3" transform="matrix(9.3,0,0,9.3,1375.9,278.5)" />
</g>
<text 
x="1366" 
y="278" 
dx="0" 
class="s4_1"
>•</text>

<g fill="#000000" >
<use xlink:href="#f3_1" transform="matrix(9.3,0,0,9.3,1382.9,278.5)" />
<use xlink:href="#f3_2" transform="matrix(9.3,0,0,9.3,1389.9,278.5)" />
<use xlink:href="#f3_6" transform="matrix(9.3,0,0,9.3,1396.9,278.5)" />
<use xlink:href="#f3_b" transform="matrix(9.3,0,0,9.3,1408.5,278.5)" />
<use xlink:href="#f3_f" transform="matrix(9.3,0,0,9.3,1417.6,278.5)" />
<use xlink:href="#f3_a" transform="matrix(9.3,0,0,9.3,1425.3,278.5)" />
</g>
<text 
x="1375" 
y="278" 
dx="0,0,0,0,0,1.1,0,0" 
class="s5_1"
>2016 FSE</text>

<path d="M1484.7,456.6l-160.4,0c-3.3,0,-6,2.7,-6,6.1l0,34.7c0,3.4,2.7,6.1,6,6.1l160.4,0c3.3,0,6.1,-2.7,6.1,-6.1l0,-34.7c0,-3.4,-2.8,-6.1,-6.1,-6.1Z" class="g4_1" />
<g fill="#000000" >
<use xlink:href="#f2_1" transform="matrix(9.3,0,0,9.3,1322.7,480.1)" />
<use xlink:href="#f3_3" transform="matrix(9.3,0,0,9.3,1331.8,480.1)" />
</g>
<text 
x="1322" 
y="480" 
dx="0" 
class="s4_1"
>•</text>

<g fill="#000000" >
<use xlink:href="#f3_1" transform="matrix(9.3,0,0,9.3,1338.8,480.1)" />
<use xlink:href="#f3_2" transform="matrix(9.3,0,0,9.3,1345.7,480.1)" />
<use xlink:href="#f3_7" transform="matrix(9.3,0,0,9.3,1352.7,480.1)" />
<use xlink:href="#f3_c" transform="matrix(9.3,0,0,9.3,1364.3,480.1)" />
<use xlink:href="#f3_9" transform="matrix(9.3,0,0,9.3,1369.4,480.1)" />
<use xlink:href="#f3_f" transform="matrix(9.3,0,0,9.3,1379.4,480.1)" />
<use xlink:href="#f3_g" transform="matrix(9.3,0,0,9.3,1387.2,480.1)" />
<use xlink:href="#f2_1" transform="matrix(9.3,0,0,9.3,1322.7,497.9)" />
</g>
<text 
x="1331" 
y="480" 
dx="0,0,0,0,0,1.1,0,0,0" 
class="s5_1"
>2017 ICST</text>

<g fill="#000000" >
<use xlink:href="#f3_3" transform="matrix(9.3,0,0,9.3,1331.8,497.9)" />
</g>
<text 
x="1322" 
y="497" 
dx="0" 
class="s4_1"
>•</text>

<g fill="#000000" >
<use xlink:href="#f3_1" transform="matrix(9.3,0,0,9.3,1338.8,497.9)" />
<use xlink:href="#f3_2" transform="matrix(9.3,0,0,9.3,1345.7,497.9)" />
<use xlink:href="#f3_4" transform="matrix(9.3,0,0,9.3,1352.7,497.9)" />
<use xlink:href="#f3_c" transform="matrix(9.3,0,0,9.3,1364.3,497.9)" />
<use xlink:href="#f3_f" transform="matrix(9.3,0,0,9.3,1369.4,497.9)" />
<use xlink:href="#f3_f" transform="matrix(9.3,0,0,9.3,1377.1,497.9)" />
<use xlink:href="#f3_e" transform="matrix(9.3,0,0,9.3,1384.9,497.9)" />
<use xlink:href="#f3_a" transform="matrix(9.3,0,0,9.3,1395.1,497.9)" />
</g>
<text 
x="1331" 
y="497" 
dx="0,0,0,0,0,1.1,0,0,0,0" 
class="s5_1"
>2014 ISSRE</text>

<path d="M1388.3,755.9l-160.4,0c-3.4,0,-6.1,2.7,-6.1,6.1l0,16.9c0,3.4,2.7,6.1,6.1,6.1l160.4,0c3.3,0,6,-2.7,6,-6.1l0,-16.9c0,-3.4,-2.7,-6.1,-6,-6.1Z" class="g4_1" />
<g fill="#000000" >
<use xlink:href="#f2_1" transform="matrix(9.3,0,0,9.3,1226.3,779.3)" />
<use xlink:href="#f3_3" transform="matrix(9.3,0,0,9.3,1235.4,779.3)" />
</g>
<text 
x="1226" 
y="779" 
dx="0" 
class="s4_1"
>•</text>

<g fill="#000000" >
<use xlink:href="#f3_1" transform="matrix(9.3,0,0,9.3,1242.3,779.3)" />
<use xlink:href="#f3_2" transform="matrix(9.3,0,0,9.3,1249.3,779.3)" />
<use xlink:href="#f3_5" transform="matrix(9.3,0,0,9.3,1256.3,779.3)" />
<use xlink:href="#f3_c" transform="matrix(9.3,0,0,9.3,1267.9,779.3)" />
<use xlink:href="#f3_f" transform="matrix(9.3,0,0,9.3,1272.9,779.3)" />
<use xlink:href="#f3_f" transform="matrix(9.3,0,0,9.3,1280.7,779.3)" />
<use xlink:href="#f3_e" transform="matrix(9.3,0,0,9.3,1288.4,779.3)" />
<use xlink:href="#f3_a" transform="matrix(9.3,0,0,9.3,1298.7,779.3)" />
</g>
<text 
x="1235" 
y="779" 
dx="0,0,0,0,0,1.1,0,0,0,0" 
class="s5_1"
>2015 ISSRE</text>

<path d="M865,1115.8l-88.1,0c-3.4,0,-6.1,2.8,-6.1,6.1l0,16.9c0,3.4,2.7,6.1,6.1,6.1l88.1,0c3.4,0,6.1,-2.7,6.1,-6.1l0,-16.9c0,-3.3,-2.7,-6.1,-6.1,-6.1Z" class="g4_1" />
<g fill="#000000" >
<use xlink:href="#f2_1" transform="matrix(9.3,0,0,9.3,775.2,1139.3)" />
<use xlink:href="#f3_3" transform="matrix(9.3,0,0,9.3,784.3,1139.3)" />
</g>
<text 
x="775" 
y="1139" 
dx="0" 
class="s4_1"
>•</text>

<g fill="#000000" >
<use xlink:href="#f3_1" transform="matrix(9.3,0,0,9.3,791.3,1139.3)" />
<use xlink:href="#f3_2" transform="matrix(9.3,0,0,9.3,798.3,1139.3)" />
<use xlink:href="#f3_5" transform="matrix(9.3,0,0,9.3,805.3,1139.3)" />
<use xlink:href="#f3_c" transform="matrix(9.3,0,0,9.3,816.9,1139.3)" />
<use xlink:href="#f3_f" transform="matrix(9.3,0,0,9.3,821.9,1139.3)" />
<use xlink:href="#f3_f" transform="matrix(9.3,0,0,9.3,829.7,1139.3)" />
<use xlink:href="#f3_e" transform="matrix(9.3,0,0,9.3,837.4,1139.3)" />
<use xlink:href="#f3_a" transform="matrix(9.3,0,0,9.3,847.7,1139.3)" />
</g>
<text 
x="784" 
y="1139" 
dx="0,0,0,0,0,1.1,0,0,0,0" 
class="s5_1"
>2015 ISSRE</text>

<path d="M634.2,1086.3l-147.5,0c-3.3,0,-6.1,2.7,-6.1,6.1l0,16.9c0,3.3,2.8,6.1,6.1,6.1l147.5,0c3.4,0,6.1,-2.8,6.1,-6.1l0,-16.9c0,-3.4,-2.7,-6.1,-6.1,-6.1Z" class="g4_1" />
<g fill="#000000" >
<use xlink:href="#f2_1" transform="matrix(9.3,0,0,9.3,485.1,1109.7)" />
<use xlink:href="#f3_3" transform="matrix(9.3,0,0,9.3,494.2,1109.7)" />
</g>
<text 
x="485" 
y="1109" 
dx="0" 
class="s4_1"
>•</text>

<g fill="#000000" >
<use xlink:href="#f3_1" transform="matrix(9.3,0,0,9.3,501.2,1109.7)" />
<use xlink:href="#f3_2" transform="matrix(9.3,0,0,9.3,508.1,1109.7)" />
<use xlink:href="#f3_6" transform="matrix(9.3,0,0,9.3,515.1,1109.7)" />
<use xlink:href="#f3_d" transform="matrix(9.3,0,0,9.3,526.7,1109.7)" />
<use xlink:href="#f3_m" transform="matrix(9.3,0,0,9.3,539.5,1109.7)" />
<use xlink:href="#f3_l" transform="matrix(9.3,0,0,9.3,547.3,1109.7)" />
<use xlink:href="#f3_h" transform="matrix(9.3,0,0,9.3,552.7,1109.7)" />
<use xlink:href="#f3_l" transform="matrix(9.3,0,0,9.3,559.7,1109.7)" />
<use xlink:href="#f3_i" transform="matrix(9.3,0,0,9.3,565.1,1109.7)" />
<use xlink:href="#f3_k" transform="matrix(9.3,0,0,9.3,569,1109.7)" />
<use xlink:href="#f3_j" transform="matrix(9.3,0,0,9.3,575.9,1109.7)" />
</g>
<text 
x="494" 
y="1109" 
dx="0,0,0,0,0,1.1,0,0,0,0,0,0,0" 
class="s5_1"
>2016 Mutation</text>

<path d="M1282.7,887l-98,0c-3.4,0,-6.1,2.8,-6.1,6.1l0,16.9c0,3.4,2.7,6.1,6.1,6.1l98,0c3.4,0,6.1,-2.7,6.1,-6.1l0,-16.9c0,-3.3,-2.7,-6.1,-6.1,-6.1Z" class="g4_1" />
<g fill="#000000" >
<use xlink:href="#f2_1" transform="matrix(9.3,0,0,9.3,1183.1,910.5)" />
<use xlink:href="#f3_3" transform="matrix(9.3,0,0,9.3,1192.2,910.5)" />
</g>
<text 
x="1183" 
y="910" 
dx="0" 
class="s4_1"
>•</text>

<g fill="#000000" >
<use xlink:href="#f3_1" transform="matrix(9.3,0,0,9.3,1199.1,910.5)" />
<use xlink:href="#f3_2" transform="matrix(9.3,0,0,9.3,1206.1,910.5)" />
<use xlink:href="#f3_4" transform="matrix(9.3,0,0,9.3,1213.1,910.5)" />
<use xlink:href="#f3_c" transform="matrix(9.3,0,0,9.3,1224.7,910.5)" />
<use xlink:href="#f3_f" transform="matrix(9.3,0,0,9.3,1229.7,910.5)" />
<use xlink:href="#f3_f" transform="matrix(9.3,0,0,9.3,1237.5,910.5)" />
<use xlink:href="#f3_e" transform="matrix(9.3,0,0,9.3,1245.2,910.5)" />
<use xlink:href="#f3_a" transform="matrix(9.3,0,0,9.3,1255.5,910.5)" />
</g>
<text 
x="1192" 
y="910" 
dx="0,0,0,0,0,1.1,0,0,0,0" 
class="s5_1"
>2014 ISSRE</text>

<path d="M267.1,869.9l-78.2,0c-3.4,0,-6.1,2.7,-6.1,6.1l0,16.9c0,3.3,2.7,6.1,6.1,6.1l78.2,0c3.4,0,6.1,-2.8,6.1,-6.1l0,-16.9c0,-3.4,-2.7,-6.1,-6.1,-6.1Z" class="g4_1" />
<g fill="#000000" >
<use xlink:href="#f2_1" transform="matrix(9.3,0,0,9.3,187.3,893.3)" />
<use xlink:href="#f3_3" transform="matrix(9.3,0,0,9.3,196.4,893.3)" />
</g>
<text 
x="187" 
y="893" 
dx="0" 
class="s4_1"
>•</text>

<g fill="#000000" >
<use xlink:href="#f3_1" transform="matrix(9.3,0,0,9.3,203.3,893.3)" />
<use xlink:href="#f3_2" transform="matrix(9.3,0,0,9.3,210.3,893.3)" />
<use xlink:href="#f3_6" transform="matrix(9.3,0,0,9.3,217.3,893.3)" />
<use xlink:href="#f3_c" transform="matrix(9.3,0,0,9.3,228.9,893.3)" />
<use xlink:href="#f3_9" transform="matrix(9.3,0,0,9.3,233.9,893.3)" />
<use xlink:href="#f3_f" transform="matrix(9.3,0,0,9.3,244,893.3)" />
<use xlink:href="#f3_a" transform="matrix(9.3,0,0,9.3,251.8,893.3)" />
</g>
<text 
x="196" 
y="893" 
dx="0,0,0,0,0,1.1,0,0,0" 
class="s5_1"
>2016 ICSE</text>

<path d="M192.4,661.7l-98,0c-3.4,0,-6.1,2.8,-6.1,6.1l0,16.9c0,3.4,2.7,6.1,6.1,6.1l98,0c3.3,0,6.1,-2.7,6.1,-6.1l0,-16.9c0,-3.3,-2.8,-6.1,-6.1,-6.1Z" class="g4_1" />
<g fill="#000000" >
<use xlink:href="#f2_1" transform="matrix(9.3,0,0,9.3,92.7,685.2)" />
<use xlink:href="#f3_3" transform="matrix(9.3,0,0,9.3,101.8,685.2)" />
</g>
<text 
x="92" 
y="685" 
dx="0" 
class="s4_1"
>•</text>

<g fill="#000000" >
<use xlink:href="#f3_1" transform="matrix(9.3,0,0,9.3,108.8,685.2)" />
<use xlink:href="#f3_2" transform="matrix(9.3,0,0,9.3,115.8,685.2)" />
<use xlink:href="#f3_6" transform="matrix(9.3,0,0,9.3,122.7,685.2)" />
<use xlink:href="#f3_c" transform="matrix(9.3,0,0,9.3,134.4,685.2)" />
<use xlink:href="#f3_9" transform="matrix(9.3,0,0,9.3,139.4,685.2)" />
<use xlink:href="#f3_f" transform="matrix(9.3,0,0,9.3,149.5,685.2)" />
<use xlink:href="#f3_a" transform="matrix(9.3,0,0,9.3,157.2,685.2)" />
</g>
<text 
x="101" 
y="685" 
dx="0,0,0,0,0,1.1,0,0,0" 
class="s5_1"
>2016 ICSE</text>

<path d="M208.8,509.5l-78.3,0c-3.3,0,-6,2.8,-6,6.1l0,16.9c0,3.4,2.7,6.1,6,6.1l78.3,0c3.3,0,6.1,-2.7,6.1,-6.1l0,-16.9c0,-3.3,-2.8,-6.1,-6.1,-6.1Z" class="g4_1" />
<g fill="#000000" >
<use xlink:href="#f2_1" transform="matrix(9.3,0,0,9.3,128.9,533)" />
<use xlink:href="#f3_3" transform="matrix(9.3,0,0,9.3,138,533)" />
</g>
<text 
x="128" 
y="532" 
dx="0" 
class="s4_1"
>•</text>

<g fill="#000000" >
<use xlink:href="#f3_1" transform="matrix(9.3,0,0,9.3,145,533)" />
<use xlink:href="#f3_2" transform="matrix(9.3,0,0,9.3,152,533)" />
<use xlink:href="#f3_6" transform="matrix(9.3,0,0,9.3,158.9,533)" />
<use xlink:href="#f3_c" transform="matrix(9.3,0,0,9.3,170.5,533)" />
<use xlink:href="#f3_9" transform="matrix(9.3,0,0,9.3,175.6,533)" />
<use xlink:href="#f3_f" transform="matrix(9.3,0,0,9.3,185.7,533)" />
<use xlink:href="#f3_a" transform="matrix(9.3,0,0,9.3,193.4,533)" />
</g>
<text 
x="138" 
y="532" 
dx="0,0,0,0,0,1.1,0,0,0" 
class="s5_1"
>2016 ICSE</text>


<defs>
	<path d="M117.6,-18.2c-22.9,0,-22.9,10.7,-22.9,39.6l0,287.2c0,35.2,0,39.7,32.1,39.7c30.6,0,30.6,-4.5,32.1,-32C171.1,93.2,383.5,47.4,517.9,47.4c171.1,0,203.2,120.7,203.2,186.4c0,77.9,-44.3,120.6,-64.2,140.5C623.3,406.4,605,409.4,452.2,443.1C293.3,478.2,250.6,487.4,171.1,566.8C149.7,588.2,94.7,660,94.7,762.4c0,166.5,116.1,304,334.6,304c148.2,0,224.6,-59.6,262.8,-91.7l65.7,74.9c13.7,15.3,18.3,16.8,29,16.8c22.9,0,22.9,-10.7,22.9,-39.7l0,-287.3c0,-35.1,0,-39.7,-32.1,-39.7c-29,0,-29,1.6,-33.6,33.6c-32.1,200.2,-165,272,-313.2,272c-148.2,0,-198.6,-90.2,-198.6,-168.1c0,-21.4,4.6,-131.4,155.9,-165L597.4,624.9C763.9,586.7,858.6,449.2,858.6,305.6c0,-162,-100.8,-323.8,-339.2,-323.8c-91.6,0,-216.9,19.7,-305.5,90C175.7,33.6,161.9,13.8,145.1,-3C129.9,-16.7,128.3,-18.2,117.6,-18.2Z" 
	id="f0_4"
	transform="scale(0.001,-0.001)" />

	<path d="M429.3,45.8c197.1,0,197.1,177.3,197.1,304.1c0,73.3,0,152.7,-30.6,207.7c-25.9,42.8,-80.9,84.1,-168,84.1c-65.7,0,-134.5,-27.5,-168.1,-88.6c-29,-55,-29,-131.4,-29,-203.2c0,-125.3,0,-304.1,198.6,-304.1ZM427.8,-9.1C187.9,-9.1,47.4,134.4,47.4,334.6c0,198.6,132.9,357.5,381.9,357.5c239.9,0,380.4,-151.3,380.4,-357.5C809.7,142.1,676.8,-9.1,427.8,-9.1Z" 
	id="f0_d"
	transform="scale(0.001,-0.001)" />

	<path d="M67.2,0l0,65.7l105.4,0l0,546.9l-113,0l0,65.7l113,0l0,155.9c0,177.2,169.6,235.2,308.7,235.2c108.4,0,163.4,-64.1,163.4,-126.8c0,-67.2,-55,-90.1,-88.6,-90.1c-39.7,0,-88.6,27.5,-88.6,88.6c0,32.1,13.8,58.1,36.7,73.3c-9.2,3.1,-12.3,4.6,-29.1,4.6C424.7,1019,323.9,994.6,323.9,835.7l0,-157.4l181.8,0l0,-65.7l-174.2,0l0,-546.9l132.9,0L427.8,3.1l-210.9,0C102.4,3.1,259.7,0,67.2,0Z" 
	id="f0_8"
	transform="scale(0.001,-0.001)" />

	<path d="M391.1,-9.1c-110,0,-235.3,35.1,-235.3,197l0,424.7l-123.7,0l0,50.5c151.2,4.5,224.6,155.8,226.1,307l64.2,0l0,-291.8l220,0l0,-65.7l-220,0l0,-429.3c0,-35.1,0,-137.5,91.6,-137.5c47.4,0,93.2,44.3,93.2,145.2l0,79.4l64.2,0l0,-81C571.4,76.4,504.2,-9.1,391.1,-9.1Z" 
	id="f0_g"
	transform="scale(0.001,-0.001)" />

	<path d="M409.4,-7.5C375.8,-7.5,369.7,3.1,359,30.6l-233.7,582l-90.2,0L81,675.3l163.4,0c103.9,0,-41.2,3,139.1,3l0,-65.7l-87.1,0l165,-406.3L577.5,495c1.5,4.6,6.1,15.3,6.1,18.3c0,7.7,-15.3,44.3,-19.8,53.5c-6.2,13.8,-13.8,33.6,-18.4,45.8l-90.1,0l76.4,62.7l122.2,0c90.1,0,-41.3,3,126.8,3l0,-65.7l-87.1,0L869.3,177.2l160.4,397.2c6.1,15.3,6.1,16.9,6.1,18.4c0,19.8,-74.8,19.8,-88.6,19.8l55,62.7l137.5,0c19.9,0,-55,3,64.2,3l0,-65.7c-88.6,0,-93.2,-10.7,-103.9,-36.6L878.5,29C867.8,1.5,863.2,-7.5,829.6,-7.5c-18.3,0,-35.2,0,-48.9,33.5L618.8,427.8L456.8,22.9C444.6,-7.5,426.3,-7.5,409.4,-7.5Z" 
	id="f0_j"
	transform="scale(0.001,-0.001)" />

	<path d="M359,41.3c48.9,0,177.3,27.5,177.3,171.1l0,143.6C386.5,348.3,221.5,301,221.5,161.9C221.5,91.7,284.2,41.3,359,41.3ZM334.6,-9.1C229.2,-9.1,51.9,21.4,51.9,160.4c0,169.6,243,236.8,484.4,236.8l0,61.1c0,125.3,-62.7,183.4,-166.6,183.4c-29,0,-65.7,0,-116.1,-13.8c26,-16.8,36.7,-44.3,36.7,-73.3c0,-58.1,-44.3,-90.2,-90.2,-90.2c-41.2,0,-90.1,27.5,-90.1,91.7c0,128.3,180.3,136,265.8,136c215.5,0,327,-94.7,327,-235.3l0,-330c0,-35.1,0,-59.6,96.2,-61.1c21.4,0,35.2,0,35.2,-32.1C834.2,0,821.9,0,789.9,0l-78,0C557.6,0,557.6,65.7,557.6,122.2C527.1,55,452.2,-9.1,334.6,-9.1Z" 
	id="f0_6"
	transform="scale(0.001,-0.001)" />

	<path d="M53.5,0l0,65.7l105.4,0l0,484.3c0,59.6,-10.7,59.6,-105.4,59.6l0,65.7L304,687.5l0,-169.6l1.6,0c21.3,64.2,73.3,169.6,194,169.6c73.3,0,152.8,-42.8,152.8,-120.7c0,-62.6,-50.5,-88.6,-88.6,-88.6c-38.2,0,-88.7,26,-88.7,88.6c0,27.5,10.7,53.5,32.1,70.3C328.5,637.1,317.8,394.2,317.8,343.8l0,-278.1l132.9,0L414,3.1l-210.8,0C88.6,3.1,246,0,53.5,0Z" 
	id="f0_e"
	transform="scale(0.001,-0.001)" />

	<path d="M594.3,381.9C592.8,458.3,579,641.7,415.6,641.7c-65.7,0,-119.2,-33.6,-148.2,-82.5C235.3,504.2,233.8,444.6,230.7,381.9ZM435.4,-9.1c-230.7,0,-388,139,-388,352.9c0,192.5,129.8,348.3,368.2,348.3c88.6,0,174.1,-19.9,238.3,-84c70.3,-71.8,81,-186.4,81,-232.3c0,-38.2,-9.2,-38.2,-44.3,-38.2l-459.9,0c0,-85.5,1.5,-291.8,223.1,-291.8c73.3,0,174.1,32.1,213.8,131.4c9.2,19.9,10.7,24.5,35.2,24.5c9.1,0,32.1,0,32.1,-22.9c0,-26,-68.8,-187.9,-299.5,-187.9Z" 
	id="f0_7"
	transform="scale(0.001,-0.001)" />

	<path d="M265.8,0l0,65.7l230.7,0l0,902.9l-123.7,0c-220,0,-232.2,-129.8,-246,-296.4l-64.2,0l30.6,362.1l1006.8,0l30.6,-362.1l-64.2,0c-13.8,168.1,-26,296.4,-246,296.4l-122.2,0l0,-902.9l230.7,0L806.7,3.1l-261.3,0C388.1,3.1,597.4,0,265.8,0Z" 
	id="f0_5"
	transform="scale(0.001,-0.001)" />

	<path d="M81,-9.1C58.1,-9.1,58.1,1.5,58.1,30.6l0,175.7c0,35.1,0,39.7,32,39.7c26,0,27.5,-1.6,36.7,-32.1C169.6,65.7,265.8,41.3,343.8,41.3c32,0,171.1,0,171.1,117.6c0,64.2,-61.1,102.4,-122.3,116.1c-6.1,0,-56.5,9.2,-97.7,16.8C247.5,299.4,58.1,333.1,58.1,493.5c0,198.6,229.1,198.6,275,198.6c55,0,111.5,-9.2,154.3,-33.6c7.6,4.6,24.4,15.3,30.5,19.8c22.9,13.8,26,13.8,35.2,13.8c22.9,0,22.9,-10.7,22.9,-39.7L576,521c0,-35.2,0,-39.7,-32.1,-39.7c-18.3,0,-30.6,0,-32.1,19.8c-3,38.2,-12.2,145.2,-181.8,145.2c-32.1,0,-168.1,0,-168.1,-99.4c0,-73.3,91.7,-90.1,189.5,-106.9c82.5,-15.3,134.4,-24.4,197.1,-76.4C579,336.1,618.8,285.7,618.8,212.4C618.8,9.2,427.8,-9.1,343.8,-9.1c-27.5,0,-110,0,-178.8,53.4l-39.7,-29C94.7,-9.1,91.7,-9.1,81,-9.1Z" 
	id="f0_f"
	transform="scale(0.001,-0.001)" />

	<path d="M67.2,0l0,65.7l105.4,0l0,484.3c0,59.6,-10.7,59.6,-100.8,59.6l0,65.7l259.7,12.2l0,-621.8l94.8,0L389.6,3.1l-181.8,0C102.4,3.1,249,0,67.2,0ZM230.7,841.8c-62.6,0,-110,52,-110,110c0,58.1,47.4,110,110,110c59.6,0,110,-47.4,110,-110c0,-62.6,-50.4,-110,-110,-110Z" 
	id="f0_a"
	transform="scale(0.001,-0.001)" />

	<path d="M64.2,0l0,65.7l105.4,0l0,484.3c0,59.6,-10.7,59.6,-105.4,59.6l0,65.7l258.2,12.2l0,-168.1l1.5,0C375.8,634,470.6,687.5,580.6,687.5c168,0,230.7,-74.9,230.7,-220l0,-401.8l105.4,0L881.5,3.1l-197.1,0C574.4,3.1,727.2,0,539.3,0l0,65.7l105.4,0l0,418.6c0,116.1,-32.1,152.8,-88.6,152.8c-97.8,0,-220,-81,-220,-246l0,-325.4l105.4,0L406.4,3.1l-197.1,0C99.3,3.1,252.1,0,64.2,0Z" 
	id="f0_c"
	transform="scale(0.001,-0.001)" />

	<path d="M429.3,-258.1c201.7,0,255.1,88.6,255.1,142.1c0,79.4,-106.9,99.3,-218.4,99.3l-174.2,0c-22.9,0,-119.2,0,-119.2,-97.8c0,-58,55,-143.6,256.7,-143.6ZM380.4,287.2c132.9,0,132.9,105.4,132.9,175.7c0,70.3,0,175.7,-132.9,175.7C247.5,638.6,247.5,533.2,247.5,462.9c0,-70.3,0,-175.7,132.9,-175.7ZM427.8,-307C146.7,-307,47.4,-204.6,47.4,-114.5c0,87.1,94.7,122.1,131.4,131.3c-32.1,24.5,-67.3,81,-67.3,146.7c0,55,27.5,108.4,53.5,137.5C100.8,352.9,85.6,415.6,85.6,462.9c0,107,84,224.6,294.8,224.6c77.9,0,137.5,-13.7,200.2,-50.4c32,27.5,94.7,59.6,160.4,59.6c64.1,0,91.6,-48.9,91.6,-85.6C832.6,579,811.3,550,771.5,550c-39.7,0,-61.1,29,-61.1,61.1c0,19.9,4.6,26,9.2,33.6c-26,-3,-62.7,-9.1,-107,-33.6C631,595.8,675.3,540.8,675.3,462.9C675.3,356,591.3,238.3,380.4,238.3c-22.9,0,-108.5,0,-181.8,39.8c-16.8,-19.9,-18.3,-42.8,-18.3,-55c0,-29.1,18.3,-87.1,84,-97.8c7.6,-1.5,74.9,-1.5,113.1,-1.5c134.4,0,232.2,0,305.5,-36.7c38.2,-18.3,126.8,-62.7,126.8,-197C809.7,-224.5,681.4,-307,427.8,-307Z" 
	id="f0_9"
	transform="scale(0.001,-0.001)" />

	<path d="M696.7,-18.2c-374.3,0,-602,227.5,-602,542.2c0,320.9,235.3,542.4,600.4,542.4c113.1,0,215.5,-36.7,301,-110l114.6,110c33.6,0,33.6,-4.6,33.6,-39.7l0,-333.1c0,-36.7,0,-39.7,-35.1,-39.7c-18.4,0,-32.1,0,-35.2,13.7c-45.8,268.9,-230.7,333.1,-345.2,333.1c-73.4,0,-226.2,-15.3,-323.9,-129.9C333.1,785.3,310.1,673.8,310.1,524C310.1,313.2,359,229.2,412.5,171.1C498.1,74.9,632.5,47.4,731.8,47.4c137.5,0,334.6,79.4,348.3,311.6c1.6,16.8,16.8,16.8,32.1,16.8c22.9,0,32.1,-1.5,32.1,-27.5C1144.3,168.1,968.6,-18.2,696.7,-18.2Z" 
	id="f0_2"
	transform="scale(0.001,-0.001)" />

	<path d="M453.8,-7.5c-35.2,0,-38.2,7.5,-52,36.5L132.9,612.6l-96.2,0l39.7,62.7l174.2,0c106.9,0,-41.3,3,142,3l0,-65.7l-84,0L505.7,183.3L684.4,576c7.7,15.3,7.7,16.8,7.7,18.3c0,10.7,-33.6,18.3,-74.9,18.3l87.1,62.7l107,0c3,0,-62.7,3,58,3l0,-65.7c-96.2,0,-102.4,-12.2,-113,-35.1L504.2,26C490.4,-4.5,478.2,-7.5,453.8,-7.5Z" 
	id="f0_i"
	transform="scale(0.001,-0.001)" />

	<path d="M637.1,524c230.7,0,230.7,117.7,230.7,226.1c0,110,0,226.2,-229.2,226.2l-206.2,0l0,-452.3ZM59.6,0l0,71.8l165,0l0,904.5l-165,0l0,71.8l637.1,0c253.6,0,404.8,-129.9,404.8,-298C1101.5,571.4,924.3,461.4,711.9,461.4l-270.4,0l0,-389.6l165,0L548.5,4.6l-281.1,0C117.6,4.6,333.1,0,59.6,0Z" 
	id="f1_7"
	transform="scale(0.001,-0.001)" />

	<path d="M56.5,0l0,71.8l105.4,0l0,472.1c0,59.6,-10.6,59.6,-105.4,59.6l0,71.8l253.6,12.2l0,-172.6c35.2,96.2,96.3,172.6,203.2,172.6c79.5,0,162,-44.3,162,-125.3C675.3,501.1,626.4,469,582.1,469c-44.3,0,-93.2,30.6,-93.2,93.2c0,44.3,27.5,68.8,29,70.3c-152.8,0,-191,-186.4,-191,-293.3l0,-267.4l133,0L404.9,4.6l-226.1,0C110,1.5,249,0,56.5,0Z" 
	id="f1_o"
	transform="scale(0.001,-0.001)" />

	<path d="M609.6,383.5C608.1,436.9,605,637.1,426.3,637.1c-44.4,0,-105.5,-18.3,-145.2,-79.5C249,507.2,247.5,443.1,244.4,383.5ZM447.6,-9.1C201.7,-9.1,48.9,139,48.9,343.8c0,190.9,132.9,348.3,377.4,348.3c105.4,0,186.3,-27.5,242.9,-82.5c76.4,-76.4,85.5,-187.9,85.5,-235.3c0,-41.2,-15.3,-41.2,-48.9,-41.2l-461.4,0c0,-78,1.6,-281.2,217,-281.2c99.3,0,186.4,48.9,218.5,122.3c9.1,24.4,12.2,32.1,38.2,32.1c7.6,0,36.6,0,36.6,-27.5C754.7,152.8,689,-9.1,447.6,-9.1Z" 
	id="f1_e"
	transform="scale(0.001,-0.001)" />

	<path d="M440,45.8c116.1,0,178.8,84.1,198.6,111.6l0,381.9C605,583.6,543.9,632.5,456.8,632.5c-47.4,0,-119.2,-15.3,-163.5,-79.4C253.6,493.5,253.6,411,253.6,337.6c0,-106.9,0,-291.8,186.4,-291.8ZM424.7,-9.1C198.6,-9.1,58.1,136,58.1,337.6c0,215.5,160.4,349.9,383.4,349.9c50.4,0,129.9,-9.2,206.3,-68.7l0,297.9c0,59.6,-10.7,59.6,-105.4,59.6l0,71.8l270.4,12.2l0,-928.9c0,-59.6,10.7,-59.6,105.4,-59.6L918.2,0L638.6,-9.1l0,74.8C591.3,27.5,517.9,-9.1,424.7,-9.1Z" 
	id="f1_d"
	transform="scale(0.001,-0.001)" />

	<path d="M71.8,0l0,71.8l105.4,0l0,472.1c0,59.6,-10.7,59.6,-100.8,59.6l0,71.8l265.8,12.2l0,-615.7l94.7,0L381.9,1.5C304,4.6,258.2,4.6,194,4.6C119.2,1.5,258.2,0,71.8,0ZM238.3,823.5c-65.7,0,-119.1,53.4,-119.1,119.1c0,65.7,53.4,119.2,119.1,119.2c64.2,0,119.2,-51.9,119.2,-119.2c0,-67.2,-55,-119.1,-119.2,-119.1Z" 
	id="f1_h"
	transform="scale(0.001,-0.001)" />

	<path d="M436.9,-9.1C201.7,-9.1,58.1,136,58.1,339.2c0,177.2,113,352.9,386.5,352.9c88.6,0,265.8,-9.2,265.8,-140.6c0,-64.1,-48.9,-96.2,-96.2,-96.2c-41.3,0,-94.8,29,-94.8,96.2c0,13.8,3.1,45.9,30.6,70.3c-19.9,4.6,-45.8,9.2,-99.3,9.2C253.6,631,253.6,432.4,253.6,346.8c0,-70.3,0,-294.9,212.4,-294.9c77.9,0,151.2,29.1,190.9,125.3c7.7,19.9,9.2,22.9,36.7,22.9c15.3,0,36.7,0,36.7,-21.3C730.3,168.1,684.4,-9.1,436.9,-9.1Z" 
	id="f1_c"
	transform="scale(0.001,-0.001)" />

	<path d="M398.8,-9.1c-108.5,0,-241.4,33.5,-241.4,197l0,418.6l-125.3,0l0,55c151.2,4.6,226.1,155.9,227.6,308.6l71.8,0l0,-291.8l223.1,0l0,-71.8l-223.1,0l0,-421.6c0,-35.2,0,-133,88.6,-133c42.8,0,91.7,36.7,91.7,140.6l0,77.9l71.8,0l0,-81C583.6,77.9,514.9,-9.1,398.8,-9.1Z" 
	id="f1_q"
	transform="scale(0.001,-0.001)" />

	<path d="M438.5,51.9c194,0,194,165,194,298c0,73.3,0,157.3,-32.1,209.3c-33.6,53.4,-97.8,77.9,-161.9,77.9C363.6,637.1,299.4,605,270.4,548.5c-26,-52,-26,-129.9,-26,-198.6c0,-133,0,-298,194.1,-298Zm0,-61C183.3,-9.1,48.9,143.6,48.9,333.1c0,203.2,139,359,389.6,359c249,0,389.6,-154.3,389.6,-359c0,-188,-133,-342.2,-389.6,-342.2Z" 
	id="f1_l"
	transform="scale(0.001,-0.001)" />

	<path d="M68.8,0l0,71.8l105.4,0l0,472.1c0,59.6,-10.7,59.6,-105.4,59.6l0,71.8l262.7,12.2l0,-165c39.8,77.9,120.7,165,267.4,165c152.8,0,235.3,-59.6,235.3,-220l0,-395.7l105.4,0L896.8,1.5C806.7,4.6,747.1,4.6,689,4.6C597.4,1.5,747.1,0,554.6,0l0,71.8l105.4,0l0,412.5c0,116.1,-32.1,148.2,-84,148.2c-96.3,0,-227.7,-74.9,-227.7,-241.4l0,-319.3l105.5,0L411,1.5C320.8,4.6,261.3,4.6,203.2,4.6C111.5,1.5,261.3,0,68.8,0Z" 
	id="f1_k"
	transform="scale(0.001,-0.001)" />

	<path d="M268.9,0l0,71.8l233.7,0l0,887.6l-117.6,0C165,959.4,149.7,835.7,136,663.1l-71.8,0l32.1,368.2l1028.1,0l32.1,-368.2l-71.8,0c-15.3,174.1,-30.5,296.3,-249,296.3l-116.1,0l0,-887.6l233.7,0L870.8,4.6L521,4.6C351.4,4.6,611.1,0,268.9,0Z" 
	id="f1_a"
	transform="scale(0.001,-0.001)" />

	<path d="M85.6,-9.1C58.1,-9.1,58.1,4.6,58.1,33.6l0,166.5c0,35.2,0,44.3,36.6,44.3c21.4,0,29.1,0,36.7,-21.3c18.3,-65.7,58,-177.3,220,-177.3c33.6,0,174.2,0,174.2,114.6c0,90.2,-114.6,110,-169.6,119.2C238.3,301,180.3,310.1,119.2,363.6c-30.6,26,-61.1,67.2,-61.1,128.3c0,200.2,235.2,200.2,281.1,200.2c61.1,0,114.6,-9.2,154.3,-29c59.6,29,62.6,29,68.7,29c27.5,0,27.5,-13.8,27.5,-42.8l0,-122.2c0,-35.2,0,-42.8,-36.6,-42.8c-32.1,0,-33.7,7.6,-35.2,30.6c-7.6,84,-65.7,128.3,-180.3,128.3c-29,0,-171.1,0,-171.1,-94.7c0,-71.8,99.3,-88.6,155.9,-99.3C441.5,429.3,490.4,420.1,550,375.8c53.5,-42.7,84,-96.2,84,-161.9C634,-9.1,398.8,-9.1,351.4,-9.1c-30.6,0,-110,0,-180.3,48.8c-4.6,-3,-38.2,-25.9,-39.7,-25.9C99.3,-9.1,96.3,-9.1,85.6,-9.1Z" 
	id="f1_p"
	transform="scale(0.001,-0.001)" />

	<path d="M62.6,0l0,65.7l35.2,0c27.5,0,58,1.5,85.5,4.6c39.8,6.1,41.3,7.6,41.3,41.2l0,870.9l-162,0l0,65.7l325.5,0c32,0,45.8,0,59.5,-32.1L814.3,194L1181,1016c13.7,32.1,27.5,32.1,59.6,32.1l325.4,0l0,-65.7l-162,0l0,-916.7l162,0L1524.7,3.1l-262.8,0C1103.1,3.1,1313.9,0,1061.8,0l0,65.7l162,0l0,916.7l-1.6,0L799,32.1C791.4,15.3,782.2,0,756.3,0c-26,0,-35.2,15.3,-42.8,32.1L297.9,964l-1.5,0l0,-852.5c0,-33.6,1.5,-35.1,45.8,-41.2c36.7,-4.6,39.7,-4.6,81,-4.6l35.1,0L423.2,3.1l-206.3,0C97.8,3.1,259.7,0,62.6,0Z" 
	id="f0_3"
	transform="scale(0.001,-0.001)" />

	<path d="M435.4,-9.1c-163.5,0,-265.8,44.2,-265.8,197l0,362.1c0,59.6,-10.7,59.6,-105.4,59.6l0,65.7l271.9,12.2l0,-524c0,-84.1,6.1,-122.2,120.7,-122.2c119.2,0,187.9,93.1,187.9,209.3l0,299.4c0,59.6,-10.7,59.6,-105.4,59.6l0,65.7l272,12.2l0,-562.2c0,-59.6,10.6,-59.6,105.4,-59.6L916.7,0L652.4,-9.1l0,123.7l-1.6,0C585.1,-9.1,472.1,-9.1,435.4,-9.1Z" 
	id="f0_h"
	transform="scale(0.001,-0.001)" />

	<path d="M759.3,369.7l-177.2,440L403.3,369.7ZM59.6,0l0,65.7l27.5,0c33.6,0,39.7,0,77.9,4.6c42.8,4.6,42.8,7.6,53.5,32.1l378.9,931.9c10.7,27.5,13.7,35.1,51.9,35.1c36.7,0,39.7,-7.6,50.4,-35.1L1092.4,65.7l145.1,0L1199.3,3.1l-262.8,0C788.3,3.1,994.6,0,739.4,0l0,65.7l143.7,0L786.8,304l-409.4,0l-81,-198.6c-3.1,-6.1,-3.1,-9.1,-7.6,-22.9C331.5,65.7,389.6,65.7,423.2,65.7L388.1,3.1L191,3.1C99.3,3.1,235.3,0,59.6,0Z" 
	id="f0_1"
	transform="scale(0.001,-0.001)" />

	<path d="M67.2,0l0,65.7l105.4,0l0,857.1c0,59.6,-10.7,59.6,-105.4,59.6l0,65.7l264.3,12.2l0,-994.6l105.4,0L401.8,3.1l-191,0C102.4,3.1,252.1,0,67.2,0Z" 
	id="f0_b"
	transform="scale(0.001,-0.001)" />

	<path d="M192.5,-305.5c-91.7,0,-158.9,64.2,-158.9,136c0,52,36.7,84,84,84c45.9,0,82.5,-32,82.5,-82.5c0,-58,-45.8,-76.3,-48.8,-77.9c16.8,-9.1,35.1,-9.1,41.2,-9.1c106.9,0,155.8,105.4,187.9,174.1c7.7,18.4,29,62.7,36.7,80.9L134.4,612.6l-97.7,0l39.7,62.7l177.2,0c103.9,0,-42.8,3,140.6,3l0,-65.7l-84.1,0L505.7,189.4l178.7,385c1.6,4.6,6.2,13.8,6.2,18.4c0,19.8,-71.8,19.8,-73.4,19.8l87.1,62.7l107,0c6.1,0,-62.7,3,58,3l0,-65.7c-97.8,0,-103.9,-12.2,-113,-33.6L430.8,-125.2c-30.5,-67.2,-113,-180.3,-238.3,-180.3Z" 
	id="f0_k"
	transform="scale(0.001,-0.001)" />

	<path d="M68.8,0l0,71.8l105.4,0l0,844.9c0,59.6,-10.7,59.6,-105.4,59.6l0,71.8l270.4,12.2l0,-522.5c35.1,61.1,113,149.7,259.7,149.7c152.8,0,235.3,-59.6,235.3,-220l0,-395.7l105.4,0L896.8,1.5C806.7,4.6,747.1,4.6,689,4.6C597.4,1.5,747.1,0,554.6,0l0,71.8l105.4,0l0,412.5c0,116.1,-32.1,148.2,-84,148.2c-96.3,0,-227.7,-74.9,-227.7,-241.4l0,-319.3l105.5,0L411,1.5C320.8,4.6,261.3,4.6,203.2,4.6C111.5,1.5,261.3,0,68.8,0Z" 
	id="f1_g"
	transform="scale(0.001,-0.001)" />

	<path d="M197.1,-305.5c-91.7,0,-163.5,62.7,-163.5,140.6c0,59.6,44.3,88.6,87.1,88.6c51.9,0,88.6,-36.7,88.6,-87.1c0,-53.4,-35.1,-74.8,-48.9,-80.9c12.2,-4.6,15.3,-6.2,36.7,-6.2c108.5,0,157.3,103.9,191,177.3L423.2,0L137.5,606.5l-97.8,0l62.7,70.3c68.7,-3,111.5,-3,113,-3c137.5,1.5,-1.5,4.5,187.9,4.5l0,-71.8l-82.5,0L514.9,194L690.6,569.9c1.5,1.5,7.6,16.8,7.6,18.3c0,18.3,-68.8,18.3,-71.8,18.3l32.1,70.3c68.7,-3,106.9,-3,145.1,-3c45.8,1.5,-38.2,4.5,82.5,4.5l0,-71.8c-97.8,0,-102.3,-10.7,-113,-32.1L444.6,-123.7c-41.3,-87,-129.9,-181.8,-247.5,-181.8Z" 
	id="f1_u"
	transform="scale(0.001,-0.001)" />

	<path d="M711.9,-16.7C331.5,-16.7,97.8,210.8,97.8,524c0,313.2,233.7,540.9,614.1,540.9c103.9,0,206.3,-27.5,301,-103.9l100.9,90.1c12.2,10.7,15.2,13.8,29,13.8c27.5,0,27.5,-13.8,27.5,-42.8l0,-328.5c0,-39.7,-1.5,-42.8,-41.3,-42.8c-35.1,0,-36.6,3.1,-41.2,32.1C1054.2,876.9,909,993.1,744,993.1c-79.4,0,-212.3,-16.8,-311.6,-117.7C336.1,774.6,331.5,609.6,331.5,524c0,-137.5,18.4,-252.1,90.2,-339.1C501.1,91.7,629.4,55,748.6,55c154.3,0,339.2,93.2,349.9,297.9c1.5,26,15.3,26,35.1,26c26,0,36.7,-1.5,36.7,-32.1C1170.3,171.1,997.6,-16.7,711.9,-16.7Z" 
	id="f1_2"
	transform="scale(0.001,-0.001)" />

	<path d="M449.2,-9.1c-151.3,0,-275,33.5,-275,197l0,356c0,59.6,-10.7,59.6,-105.4,59.6l0,71.8l279.5,12.2l0,-521C348.3,84,352.9,45.8,470.6,45.8c111.5,0,189.4,81,189.4,206.3l0,291.8c0,59.6,-10.7,59.6,-105.4,59.6l0,71.8l279.6,12.2l0,-556.1c0,-59.6,10.7,-59.6,105.4,-59.6L939.6,0L669.2,-9.1l0,119.1C598.9,-9.1,488.9,-9.1,449.2,-9.1Z" 
	id="f1_r"
	transform="scale(0.001,-0.001)" />

	<path d="M514.9,45.8c99.3,0,206.2,79.5,206.2,294.9c0,192.5,-85.5,285.7,-187.9,285.7c-33.6,0,-113.1,-9.2,-174.2,-71.8c-21.4,-21.4,-22.9,-22.9,-22.9,-52l0,-323.8c0,-29.1,0,-30.6,16.8,-50.5C421.7,45.8,493.5,45.8,514.9,45.8ZM56.5,-296.3l0,71.8l105.4,0l0,769.9c0,58.1,-10.6,58.1,-105.4,58.1l0,71.8l270.4,12.2l0,-74.9c35.2,27.5,116.2,74.9,230.7,74.9c220,0,359.1,-143.6,359.1,-346.8C916.7,128.3,760.8,-9.1,531.7,-9.1C469,-9.1,401.8,6.1,336.1,59.6l0,-284.1l105.4,0l-42.7,-70.3c-90.2,3.1,-149.8,3.1,-207.8,3.1c-91.7,-3.1,58,-4.6,-134.5,-4.6Z" 
	id="f1_m"
	transform="scale(0.001,-0.001)" />

	<path d="M71.8,0l0,71.8l105.4,0l0,844.9c0,59.6,-10.7,59.6,-105.4,59.6l0,71.8l270.4,12.2l0,-988.5l105.4,0L395.7,1.5C325.4,4.6,259.7,4.6,194,4.6C120.7,1.5,259.7,0,71.8,0Z" 
	id="f1_i"
	transform="scale(0.001,-0.001)" />

	<path d="M438.5,-252c198.6,0,258.2,82.5,258.2,137.5c0,94.7,-172.7,94.7,-220,94.7l-178.8,0c-21.4,0,-117.6,0,-117.6,-91.6c0,-70.3,74.8,-140.6,258.2,-140.6ZM389.6,290.3C524,290.3,524,392.6,524,461.4c0,68.7,0,171.1,-134.4,171.1C255.1,632.5,255.1,530.1,255.1,461.4c0,-68.8,0,-171.1,134.5,-171.1ZM438.5,-307C132.9,-307,48.9,-192.4,48.9,-114.5c0,96.3,111.5,128.3,131.4,132.8C119.2,67.2,113.1,142.1,113.1,165c0,32.1,9.1,82.5,51.9,136C116.1,336.1,85.6,398.8,85.6,461.4c0,106.9,84,226.1,304,226.1c113,0,177.2,-32.1,204.7,-50.4c67.2,53.5,139,58,162,58c70.2,0,96.2,-53.4,96.2,-88.6c0,-36.6,-26,-65.7,-65.7,-65.7c-39.7,0,-65.7,27.5,-65.7,65.7c0,9.2,3.1,22.9,6.1,30.6c-16.8,-1.5,-48.9,-4.6,-94.7,-29c22.9,-24.5,61.1,-74.9,61.1,-146.7c0,-107,-84,-226.1,-304,-226.1c-38.2,0,-116.1,3,-186.4,39.7C194,262.8,187.9,239.9,187.9,224.6c0,-27.5,16.8,-85.6,84,-96.3c7.7,-1.5,78,-1.5,117.7,-1.5c146.7,0,238.3,0,323.9,-42.8C815.8,32.1,828.1,-64.1,828.1,-109.9C828.1,-216.8,708.9,-307,438.5,-307Z" 
	id="f1_f"
	transform="scale(0.001,-0.001)" />

	<path d="M59.6,0l0,71.8l165,0l0,895.3l-165,0l0,71.8l948.7,0l47.4,-368.2l-71.8,0C959.4,855.6,919.7,967.1,673.8,967.1l-232.3,0l0,-392.7l84.1,0c148.2,0,161.9,65.7,161.9,178.8l71.8,0l0,-429.3l-71.8,0c0,113,-15.3,178.7,-161.9,178.7l-84.1,0l0,-430.8l232.3,0c282.6,0,325.4,136,359,346.8l71.8,0L1034.3,0Z" 
	id="f1_4"
	transform="scale(0.001,-0.001)" />

	<path d="M647.8,678.3l0,162c-27.5,18.3,-38.2,50.4,-38.2,76.4c0,56.5,41.2,79.4,45.8,82.5c-16.8,6.1,-50.4,15.2,-97.8,15.2c-139,0,-239.8,-58,-239.8,-186.3l0,-149.8ZM56.5,0l0,71.8l105.4,0l0,534.7l-114.5,0l0,71.8l114.5,0l0,152.8c0,180.3,218.5,238.3,404.9,238.3c33.6,0,119.2,0,183.3,-53.4c71.8,45.8,160.5,53.4,213.9,53.4c119.2,0,175.7,-67.2,175.7,-132.9c0,-62.6,-48.9,-94.7,-94.7,-94.7c-39.7,0,-93.2,29,-93.2,94.7c0,29.1,12.2,58.1,35.1,74.9c-9.1,1.5,-15.2,3,-27.5,3c-27.5,0,-155.8,-6.1,-155.8,-181.8l0,-154.3l187.9,0l0,-71.8l-178.7,0l0,-534.7l132.9,0L890.7,4.6l-226.1,0C595.8,1.5,734.9,0,542.4,0l0,71.8l105.4,0l0,534.7l-320.9,0l0,-534.7l105.5,0L380.4,1.5C310.1,4.6,244.4,4.6,178.8,4.6C105.4,1.5,244.4,0,56.5,0Z" 
	id="f1_1"
	transform="scale(0.001,-0.001)" />

	<path d="M68.8,0l0,71.8l105.4,0l0,472.1c0,59.6,-10.7,59.6,-105.4,59.6l0,71.8l262.7,12.2l0,-165c48.9,96.3,136,165,268.9,165c58.1,0,198.6,-4.6,229.2,-146.7c39.7,70.3,119.2,146.7,258.2,146.7c157.3,0,235.3,-62.6,235.3,-220l0,-395.7l105.4,0L1385.7,1.5C1295.6,4.6,1236,4.6,1177.9,4.6C1086.3,1.5,1236,0,1043.5,0l0,71.8l105.4,0l0,412.5c0,117.6,-33.6,148.2,-85.6,148.2c-94.7,0,-227.6,-74.9,-227.6,-241.4l0,-319.3l105.4,0L898.3,1.5C808.2,4.6,748.6,4.6,690.6,4.6C598.9,1.5,748.6,0,556.1,0l0,71.8l105.4,0l0,412.5c0,117.6,-33.6,148.2,-85.5,148.2c-94.7,0,-227.7,-74.9,-227.7,-241.4l0,-319.3l105.5,0L411,1.5C320.8,4.6,261.3,4.6,203.2,4.6C111.5,1.5,261.3,0,68.8,0Z" 
	id="f1_j"
	transform="scale(0.001,-0.001)" />

	<path d="M366.7,45.8c38.2,0,178.7,19.9,178.7,166.6l0,145.1C469,352.9,227.6,331.5,227.6,166.5C227.6,99.3,288.8,45.8,366.7,45.8ZM343.8,-9.1C238.3,-9.1,48.9,18.3,48.9,165c0,221.5,388,235.3,496.5,239.9l0,51.9c0,116.1,-53.5,180.3,-168,180.3c-18.4,0,-67.3,-1.5,-110,-10.7c4.5,-3.1,33.6,-29,33.6,-74.9c0,-64.1,-48.9,-96.2,-96.3,-96.2c-41.2,0,-94.7,29,-94.7,96.2C110,686,296.4,692.1,383.5,692.1c227.6,0,336.1,-99.3,336.1,-235.3l0,-328.5c0,-35.1,0,-55,93.2,-56.5c19.8,0,39.7,0,39.7,-35.1C852.5,0,834.2,0,803.6,0L730.3,0C571.4,0,571.4,70.3,571.4,117.6C537.8,53.5,466,-9.1,343.8,-9.1Z" 
	id="f1_b"
	transform="scale(0.001,-0.001)" />

	<path d="M609.6,551.5c252.1,0,252.1,126.8,252.1,212.4c0,93.2,-3.1,212.4,-249.1,212.4l-180.2,0l0,-424.8ZM1127.5,-16.7c-62.6,0,-157.4,6.1,-224.6,39.6C796,74.9,796,149.7,796,250.6c0,111.5,0,140.5,-48.9,194c-47.4,51.9,-114.6,51.9,-136,51.9l-178.7,0l0,-424.7l165,0L542.4,4.6l-278.1,0C114.6,4.6,328.5,0,59.6,0l0,71.8l165,0l0,904.5l-165,0l0,71.8l580.5,0c287.3,0,455.3,-128.4,455.3,-282.7c0,-100.8,-77.9,-200.1,-255.1,-246C906,495,990,447.6,1011.4,340.7c1.5,-7.6,13.7,-113.1,16.8,-129.9c7.6,-64.1,21.4,-172.6,113.1,-172.6c45.8,0,90.1,33.6,97.7,105.4c1.6,19.9,3.1,35.2,35.2,35.2c15.2,0,36.6,0,36.6,-33.7c0,-24.4,-19.8,-161.8,-183.3,-161.8Z" 
	id="f1_8"
	transform="scale(0.001,-0.001)" />

	<path d="M462.9,-6c-19.8,0,-39.7,0,-58,38.1L137.5,606.5l-97.8,0l62.7,70.3c68.7,-3,111.5,-3,113,-3c137.5,1.5,-1.5,4.5,187.9,4.5l0,-71.8l-82.5,0L514.9,189.4l177.2,382c6.1,13.7,7.6,16.8,7.6,18.3c0,12.2,-44.3,16.8,-73.3,16.8l32.1,70.3c68.7,-3,106.9,-3,145.1,-3c44.3,1.5,-38.2,4.5,82.5,4.5l0,-71.8c-97.8,0,-103.9,-10.7,-113,-32.1L519.4,30.6C504.2,-1.4,488.9,-6,462.9,-6Z" 
	id="f1_s"
	transform="scale(0.001,-0.001)" />

	<path d="M125.3,-16.7C97.8,-16.7,97.8,-3,97.8,26l0,278c0,35.2,0,44.3,36.6,44.3c33.7,0,33.7,-7.6,35.2,-35.1C181.8,85.6,414,55,530.1,55C689,55,728.8,160.4,728.8,233.8c0,70.2,-38.2,110,-61.2,132.9c-33.6,32.1,-59.5,36.6,-194,65.7C307.1,469,255.1,479.7,180.3,554.6C148.2,588.2,97.8,658.5,97.8,757.8c0,160.4,110,307.1,342.2,307.1c73.3,0,172.6,-13.8,261.3,-84.1l68.7,67.3c16.8,15.2,18.3,16.8,30.6,16.8c27.5,0,27.5,-13.8,27.5,-42.8l0,-279.6c0,-35.1,0,-42.8,-36.7,-42.8c-32.1,0,-32.1,3.1,-38.2,39.7C718.1,947.2,563.8,999.2,441.5,999.2C288.8,999.2,246,904.4,246,838.8c0,-93.2,85.5,-145.2,146.6,-158.9L614.2,632.5c139,-29,262.7,-152.8,262.7,-322.4C876.9,155.8,782.2,-16.7,530.1,-16.7c-62.6,0,-204.7,9.2,-305.5,83.9L154.3,-3C142.1,-13.7,139,-16.7,125.3,-16.7Z" 
	id="f1_9"
	transform="scale(0.001,-0.001)" />

	<path d="M655.4,71.8c93.2,0,227.7,24.5,301,128.3c48.9,68.8,67.2,149.8,67.2,316.3c0,142.1,-12.2,246,-65.7,323.9c-74.8,106.9,-201.6,136,-302.5,136l-223,0l0,-904.5ZM59.6,0l0,71.8l165,0l0,904.5l-165,0l0,71.8l656.9,0c302.5,0,531.7,-197.1,531.7,-533.2C1248.2,187.9,1019,0,718.1,0Z" 
	id="f1_3"
	transform="scale(0.001,-0.001)" />

	<path d="M440,45.8c45.8,0,123.8,16.8,184.9,107c22.9,32.1,22.9,36.6,22.9,64.1l0,212.4c0,76.4,-73.4,197.1,-189.5,197.1c-91.6,0,-204.7,-71.8,-204.7,-288.8C253.6,134.4,345.3,45.8,440,45.8Zm93.2,-342.1l0,71.8l105.4,0l0,297.8C568.3,12.2,499.6,-9.1,424.7,-9.1C212.4,-9.1,58.1,123.8,58.1,339.2c0,212.3,157.3,348.3,380.4,348.3c91.6,0,177.2,-45.8,230.7,-120.7l80.9,120.7l62.7,0l0,-912l105.4,0l-42.8,-70.3c-90.1,3.1,-149.7,3.1,-207.8,3.1c-91.6,-3.1,58.1,-4.6,-134.4,-4.6Z" 
	id="f1_n"
	transform="scale(0.001,-0.001)" />

	<path d="M61.1,0l0,71.8l38.2,0c42.8,0,45.8,0,82.5,4.6c42.8,4.6,44.3,6.1,44.3,39.7l0,860.2l-165,0l0,71.8l339.2,0c33.6,0,50.4,0,67.2,-38.2L834.2,201.7l366.6,808.2c16.8,38.2,33.6,38.2,67.3,38.2l337.6,0l0,-71.8l-165,0l0,-904.5l165,0l-55,-67.2l-268.9,0C1139.7,4.6,1344.4,0,1084.7,0l0,71.8l165,0l0,904.5l-1.5,0L821.9,36.7C815.8,22.9,803.6,0,773.1,0C756.3,0,737.9,7.6,724.2,38.2L308.6,956.4l-1.5,0l0,-840.3c0,-33.6,1.5,-35.1,45.8,-39.7c27.5,-3.1,53.5,-4.6,81,-4.6l38.2,0L409.4,4.6l-203.1,0C119.2,4.6,265.8,0,61.1,0Z" 
	id="f1_6"
	transform="scale(0.001,-0.001)" />

	<path d="M59.6,0l0,71.8l165,0l0,895.3l-165,0l0,71.8l924.3,0l47.4,-368.2l-71.9,0c-22.9,178.7,-58,296.4,-304,296.4l-213.9,0l0,-411l76.4,0c148.2,0,160.4,65.7,160.4,178.8l71.8,0l0,-429.3l-71.8,0c0,113,-13.7,178.7,-160.4,178.7l-76.4,0l0,-412.5l206.3,0L580.6,4.6l-308.7,0C117.6,4.6,339.2,0,59.6,0Z" 
	id="f1_5"
	transform="scale(0.001,-0.001)" />

	<path d="M417.1,-6c-38.2,0,-44.3,15.2,-55,41.1L128.3,606.5l-90.1,0l51.9,70.3c67.3,-3,114.6,-3,177.3,-3c62.6,1.5,-62.7,4.5,125.2,4.5l0,-71.8l-85.5,0L467.5,212.4L588.2,505.7c1.5,4.6,6.1,13.7,6.1,19.9c0,1.5,0,4.5,-32.1,80.9l-90.1,0l24.4,70.3c64.2,-3,128.4,-3,174.2,-3c79.4,3,-45.8,4.5,128.3,4.5l0,-71.8l-85.5,0L887.6,178.8l160.5,391.1c1.5,4.5,6.1,13.7,6.1,18.3c0,16.8,-74.9,18.3,-88.6,18.3l33.6,70.3c71.8,-3,113,-3,149.7,-3c45.8,1.5,-36.7,4.5,81,4.5l0,-71.8c-90.2,0,-96.3,-12.2,-103.9,-32.1L906,35.1C895.3,9.2,889.2,-6,851,-6C812.8,-6,806.7,9.2,796,35.1L634,430.8L472.1,35.1C461.4,9.2,455.3,-6,417.1,-6Z" 
	id="f1_t"
	transform="scale(0.001,-0.001)" />

	<path d="M381.9,85.6C216.9,85.6,84,220,84,381.9c0,160.5,132.9,296.4,297.9,296.4c160.5,0,296.4,-132.9,296.4,-296.4C678.3,218.5,542.4,85.6,381.9,85.6Z" 
	id="f2_1"
	transform="scale(0.001,-0.001)" />

	<path d="M74.9,0l0,36.7L383.5,381.9c87.1,97.8,161.9,210.9,161.9,340.7c0,140.6,-79.4,249.1,-209.3,249.1c-99.3,0,-181.8,-70.3,-210.8,-174.2c4.6,1.5,7.6,1.5,21.4,1.5c42.7,0,71.8,-29,71.8,-71.8c0,-48.9,-39.7,-71.8,-71.8,-71.8c-4.6,0,-71.8,0,-71.8,77.9C74.9,864.7,178.8,1016,356,1016c177.2,0,316.2,-117.7,316.2,-293.4C672.2,571.4,586.7,491.9,354.4,278.1C314.7,241.4,221.5,143.6,180.3,108.5l282.6,0c45.9,0,132.9,0,143.6,13.7c15.3,24.5,27.5,108.5,32.1,134.5l33.6,0L632.5,0Z" 
	id="f3_3"
	transform="scale(0.001,-0.001)" />

	<path d="M372.8,-1.4c53.5,0,149.7,28.9,178.7,197c16.8,93.2,16.8,209.3,16.8,311.6c0,103.9,0,224.6,-19.8,311.7C519.4,950.3,430.8,985.4,372.8,985.4c-65.7,0,-143.6,-47.3,-169.6,-149.7C178.8,745.6,178.8,632.5,178.8,507.2c0,-106.9,0,-223,16.8,-314.7C224.6,26,323.9,-1.4,372.8,-1.4Zm0,-30.6C293.3,-32,187.9,4.6,128.3,120.7c-55,108.5,-65.7,220,-65.7,368.2c0,165,15.3,259.7,58.1,356c56.5,126.8,165,171.1,253.6,171.1c74.9,0,184.9,-33.6,247.5,-160.4c55,-116.2,62.6,-239.9,62.6,-366.7c0,-88.6,-3,-238.3,-58,-352.9C582.1,47.4,505.7,-32,372.8,-32Z" 
	id="f3_1"
	transform="scale(0.001,-0.001)" />

	<path d="M148.2,0l0,44.3l47.4,0c134.4,0,139,18.3,139,73.3l0,796C250.6,873.9,174.2,873.9,139,873.9l0,44.3c157.4,0,233.8,56.5,270.4,97.8c30.6,0,30.6,-1.6,30.6,-36.7l0,-861.7c0,-55,4.6,-73.3,139,-73.3l47.4,0L585.1,3.1l-247.5,0C189.4,3.1,388.1,0,148.2,0Z" 
	id="f3_2"
	transform="scale(0.001,-0.001)" />

	<path d="M375.8,9.2c61.1,0,116.1,25.9,154.3,99.3c29.1,58,29.1,126.8,29.1,204.7c0,65.7,0,142.1,-24.5,198.6c-22.9,52,-67.2,108.5,-151.2,108.5C246,620.3,191,469,191,348.3c0,-106.9,15.3,-181.8,29,-221.5C233.8,94.7,279.6,9.2,375.8,9.2Zm0,-41.2C246,-32,62.6,62.6,62.6,482.8c0,336.1,201.7,533.2,394.2,533.2c132.9,0,191,-77.9,191,-157.4c0,-44.3,-26,-67.2,-64.2,-67.2c-39.7,0,-62.6,29,-62.6,62.6c0,62.7,58,62.7,76.4,62.7c-29.1,45.8,-84.1,62.6,-139.1,62.6c-82.5,0,-270.4,-61.1,-270.4,-447.6l0,-41.3c15.3,42.8,65.7,160.4,201.7,160.4c152.8,0,294.8,-135.9,294.8,-339.1C684.4,113.1,542.4,-32,375.8,-32Z" 
	id="f3_6"
	transform="scale(0.001,-0.001)" />

	<path d="M55,0l0,44.3l33.6,0c114.6,0,119.2,15.3,119.2,71.8l0,811.3c0,56.5,-4.6,71.8,-119.2,71.8l-33.6,0l36.7,41.2l224.6,0c131.3,0,-45.9,3.1,168,3.1l0,-44.3l-33.6,0c-114.6,0,-119.2,-15.3,-119.2,-71.8l0,-811.3c0,-56.5,4.6,-71.8,119.2,-71.8l33.6,0L447.6,3.1l-224.5,0C91.7,3.1,268.9,0,55,0Z" 
	id="f3_c"
	transform="scale(0.001,-0.001)" />

	<path d="M97.8,-32C82.5,-32,82.5,-24.3,82.5,3.1l0,308.6c0,27.5,0,35.1,16.8,35.1c3.1,0,15.3,0,16.8,-12.2c1.5,-50.4,7.7,-160.4,96.3,-239.9C287.2,29,381.9,12.2,450.7,12.2c126.8,0,207.8,108.5,207.8,223.1c0,85.5,-47.4,168,-119.2,203.2C517.9,447.6,433.9,469,380.4,481.3C271.9,508.8,218.5,522.5,165,582.1C108.5,643.2,82.5,710.4,82.5,783.8c0,155.8,123.8,291.8,293.3,291.8c67.3,0,168.1,-18.4,241.4,-113.1l50.4,93.2c10.7,19.9,16.8,19.9,21.4,19.9c15.3,0,15.3,-7.7,15.3,-35.2l0,-308.6c0,-27.5,0,-35.1,-16.8,-35.1c-15.3,0,-15.3,6.1,-18.3,24.4c-9.2,65.7,-42.8,313.2,-293.4,313.2c-119.1,0,-204.7,-96.2,-204.7,-203.2c0,-97.8,68.8,-174.2,146.7,-194l168,-42.8C545.4,579,614.2,562.2,670.7,493.5c41.2,-50.4,76.4,-119.2,76.4,-212.4C747.1,113.1,623.3,-32,452.2,-32C320.8,-32,224.6,19.9,169.6,81C157.4,58.1,125.3,1.5,119.2,-10.6C108.5,-28.9,106.9,-32,97.8,-32Z" 
	id="f3_f"
	transform="scale(0.001,-0.001)" />

	<path d="M273.5,0l0,44.3l55,0c149.7,0,149.7,21.4,149.7,73.3l0,812.8c0,35.2,-1.5,53.5,-32.1,58.1c-12.2,3,-55,3,-82.5,3c-241.4,0,-255.1,-55,-276.5,-296.4l-33.6,0L81,1035.8l916.6,0l27.5,-340.7l-33.6,0C970.1,936.5,956.4,991.5,715,991.5c-29,0,-73.3,0,-85.6,-3C605,982.4,601.9,968.6,601.9,930.4l0,-812.8c0,-51.9,0,-73.3,149.8,-73.3l55,0L757.8,3.1l-278.1,0C322.4,3.1,539.3,0,273.5,0Z" 
	id="f3_g"
	transform="scale(0.001,-0.001)" />

	<path d="M695.1,400.3L517.9,909L340.7,400.3ZM47.4,0l0,44.3c97.7,1.5,140.5,41.3,161.9,103.9l319.3,913.6c7.7,24.5,10.7,29,32.1,29c21.4,0,24.4,-9.1,30.6,-27.5l333,-956.4C945.7,44.3,973.2,44.3,1072.5,44.3L1037.4,3.1l-195.6,0C721.1,3.1,884.6,0,686,0l0,44.3c38.2,0,116.1,0,116.1,45.8c0,4.6,0,7.7,-7.7,26L710.4,356l-385,0L255.1,152.8c-7.6,-19.9,-7.6,-22.9,-7.6,-32.1c0,-42.8,38.2,-74.9,102.4,-76.4L310.1,3.1l-166.5,0C140.6,3.1,194,0,47.4,0Z" 
	id="f3_8"
	transform="scale(0.001,-0.001)" />

	<path d="M62.6,0l0,44.3l30.6,0c110,0,114.6,15.3,114.6,71.8l0,808.2c0,56.5,-4.6,71.8,-114.6,71.8l-30.6,0l0,44.3l831.2,0L933.5,699.7l-33.6,0c-23,220,-70.3,296.4,-294.9,296.4l-203.2,0c-67.2,0,-70.3,-10.7,-70.3,-61.1l0,-372.8l139.1,0C617.2,562.2,634,609.6,634,741l33.6,0l0,-401.8l-33.6,0c0,131.4,-16.8,178.7,-163.4,178.7l-139.1,0l0,-412.5c0,-50.4,3.1,-61.1,70.3,-61.1l207.8,0c258.2,0,294.8,108.5,331.5,346.8l33.6,0L913.6,0Z" 
	id="f3_a"
	transform="scale(0.001,-0.001)" />

	<path d="M450.7,299.4l0,576L79.4,299.4ZM297.9,0l0,44.3l30.6,0c111.5,0,114.6,15.3,114.6,71.8l0,139l-401.8,0l0,44.3l459.8,713.5c12.2,18.4,16.8,18.4,29,18.4c21.4,0,21.4,-7.7,21.4,-36.7l0,-695.2l154.3,0l0,-44.3l-154.3,0l0,-139c0,-56.5,4.6,-71.8,114.6,-71.8l30.6,0L661.5,3.1l-207.7,0C333.1,3.1,496.5,0,297.9,0Z" 
	id="f3_4"
	transform="scale(0.001,-0.001)" />

	<path d="M603.5,-32c-276.6,0,-521,238.3,-521,554.5c0,311.7,241.4,553.1,521,553.1c110,0,213.9,-53.5,282.6,-139.1L961,1057.2c9.1,15.3,10.7,18.4,19.8,18.4c15.3,0,15.3,-7.7,15.3,-35.2l0,-362.1c0,-30.5,0,-35.1,-21.4,-35.1c-18.3,0,-18.3,4.6,-21.4,22.9C922.8,895.3,782.2,1031.3,621.8,1031.3c-110,0,-397.2,-67.3,-397.2,-508.8C224.6,76.4,516.4,12.2,623.3,12.2c148.2,0,325.5,107,339.2,349.9c0,10.7,1.5,18.3,16.8,18.3c16.8,0,16.8,-9.1,16.8,-26C996.1,186.4,854,-32,603.5,-32Z" 
	id="f3_9"
	transform="scale(0.001,-0.001)" />

	<path d="M62.6,0l0,44.3l30.6,0c110,0,114.6,15.3,114.6,71.8l0,808.2c0,56.5,-4.6,71.8,-114.6,71.8l-30.6,0l0,44.3l809.8,0L912.1,699.7l-33.6,0C857.1,915.1,812.8,996.1,592.8,996.1l-191,0c-67.2,0,-70.3,-10.7,-70.3,-61.1l0,-392.6l134.5,0c143.6,0,158.9,50.4,158.9,178.7l33.6,0l0,-401.8l-33.6,0c0,128.3,-15.3,178.8,-158.9,178.8l-134.5,0l0,-380.5c0,-55,3.1,-73.3,136,-73.3l45.8,0L469,3.1l-233.7,0C99.3,3.1,281.1,0,62.6,0Z" 
	id="f3_b"
	transform="scale(0.001,-0.001)" />

	<path d="M331.5,-32c-62.6,0,-62.6,61,-62.6,77.8c0,287.3,154.3,537.8,195.5,597.4l162,232.2l-323.9,0c-21.4,0,-136,0,-148.2,-9.1C134.4,849.4,120.7,754.7,116.1,727.2l-33.6,0l47.4,305.6l33.6,0c6.1,-29,9.1,-48.9,194,-48.9l368.2,0l0,-35.1L504.2,631C432.4,528.6,395.7,351.4,395.7,123.8l0,-76.4c0,-19.9,0,-79.4,-64.2,-79.4Z" 
	id="f3_7"
	transform="scale(0.001,-0.001)" />

	<path d="M501.1,537.8c198.6,0,270.4,97.8,270.4,230.7C771.5,999.2,576,999.2,452.2,999.2c-30.5,0,-76.4,0,-90.1,-1.6C330,991.5,330,973.2,330,938.1l0,-400.3ZM956.4,-32C870.8,-32,806.7,3.1,783.8,26C716.5,91.7,716.5,131.4,716.5,252.1c0,105.4,0,137.5,-51.9,195.5c-41.3,42.8,-97.8,59.6,-157.4,59.6l-177.2,0l0,-391.1c0,-56.5,4.6,-71.8,114.6,-71.8l30.5,0L440,3.1l-215.4,0C99.3,3.1,268.9,0,64.2,0l0,44.3l30.5,0c110,0,114.6,15.3,114.6,71.8l0,811.3c0,56.5,-4.6,71.8,-114.6,71.8l-30.5,0l0,44.3l456.8,0c220,0,392.6,-126.8,392.6,-275C913.6,650.8,796,554.6,644.7,519.4c84.1,-22.9,123.8,-64.1,140.6,-80.9c45.8,-47.4,51.9,-96.3,62.6,-172.7c4.6,-38.2,13.8,-103.9,15.3,-114.5C875.4,70.3,890.7,-1.4,961,-1.4c48.9,0,93.2,41.1,100.8,132.8c1.5,15.3,1.5,24.4,16.8,24.4c16.8,0,16.8,-13.7,16.8,-22.9c0,-32.1,-19.8,-164.9,-139,-164.9Z" 
	id="f3_e"
	transform="scale(0.001,-0.001)" />

	<path d="M348.3,-32C178.8,-32,74.9,116.1,74.9,246c0,59.6,39.7,73.3,67.2,73.3c38.2,0,67.2,-24.4,67.2,-67.2c0,-52,-41.2,-67.2,-67.2,-67.2c-7.7,0,-16.8,1.5,-24.5,4.5C145.1,77.9,244.4,9.2,345.3,9.2c67.2,0,126.8,38.2,160.4,93.2c42.8,68.7,42.8,155.8,42.8,213.9c0,58,-1.6,132.9,-27.5,192.5C508.8,534.7,469,609.6,388.1,609.6c-76.4,0,-148.2,-36.7,-191,-99.3C181.8,491.9,180.3,490.4,172.6,490.4c-18.3,0,-18.3,9.2,-18.3,36.7l0,453.7c0,24.5,0,33.6,12.2,33.6c1.6,0,4.6,0,15.3,-4.5c29,-12.3,100.8,-42.8,201.7,-42.8c39.7,0,113,4.6,198.6,41.2c13.7,6.1,16.8,6.1,19.8,6.1c9.2,0,12.3,-7.6,12.3,-13.7c0,-21.4,-110,-148.2,-282.7,-148.2c-16.8,0,-70.2,1.5,-135.9,22.9l0,-316.2c39.7,42.7,106.9,80.9,194,80.9c160.4,0,282.6,-151.2,282.6,-333C672.2,113.1,521,-32,348.3,-32Z" 
	id="f3_5"
	transform="scale(0.001,-0.001)" />

	<path d="M67.2,0l0,44.3c145.2,0,145.2,71.8,145.2,113.1l0,770c0,56.5,-4.6,71.8,-114.6,71.8l-30.6,0l0,44.3l236.8,0c35.2,0,36.7,0,47.4,-29.1l333,-870.8l333.1,869.3c12.2,29,13.8,30.6,47.4,30.6l236.8,0l0,-44.3l-30.6,0c-110,0,-114.6,-15.3,-114.6,-71.8l0,-811.3c0,-56.5,4.6,-71.8,114.6,-71.8l30.6,0L1266.5,3.1l-210.8,0C933.5,3.1,1100,0,898.3,0l0,44.3l30.6,0c110,0,114.6,15.3,114.6,71.8l0,883.1l-1.6,0L670.7,30.6C661.5,7.6,658.5,0,644.7,0C629.4,0,624.9,12.2,618.8,29L250.6,991.5l-1.6,0l0,-834.1C249,116.1,249,44.3,394.2,44.3L354.4,3.1l-166.5,0C106.9,3.1,230.7,0,67.2,0Z" 
	id="f3_d"
	transform="scale(0.001,-0.001)" />

	<path d="M388.1,-15.2c-78,0,-140.6,18.3,-177.3,58C165,93.2,165,148.2,165,242.9l0,229.2c0,136,0,140.5,-116.1,140.5l0,44.3l215.4,16.9l0,-505.7c0,-81,7.6,-152.8,132.9,-152.8c114.6,0,183.4,108.5,183.4,238.3l0,273.5c0,74.8,-12.3,85.5,-116.2,85.5l0,44.3l215.5,16.9l0,-543.9C679.9,55,692.1,44.3,796,44.3L796,0L583.6,-15.2l0,137.4c0,0,-24.4,-58,-68.7,-93.2C462.9,-15.2,414,-15.2,388.1,-15.2Z" 
	id="f3_m"
	transform="scale(0.001,-0.001)" />

	<path d="M351.4,-15.2c-81,0,-194,35.1,-194,204.6l0,424.8l-129.9,0l0,30.5c139,4.6,194,151.3,195.6,294.9l33.6,0l0,-281.1l215.4,0l0,-44.3l-215.4,0l0,-427.8c0,-26,0,-168.1,103.9,-168.1c59.5,0,103.8,64.2,103.8,174.2l0,84l33.7,0l0,-87.1c0,-110,-50.5,-204.6,-146.7,-204.6Z" 
	id="f3_l"
	transform="scale(0.001,-0.001)" />

	<path d="M313.2,15.3c65.7,0,177.2,50.4,177.2,200.1l0,151.3C435.4,363.6,175.7,345.3,175.7,143.6C175.7,70.3,238.3,15.3,313.2,15.3ZM301,-15.2C207.8,-15.2,67.2,22.9,67.2,143.6c0,117.7,116.1,246,423.2,250.6l0,61.1c0,137.5,-90.1,195.5,-160.4,195.5c-61.1,0,-134.4,-27.5,-169.6,-91.6c22.9,0,77.9,0,77.9,-62.7c0,-36.6,-25.9,-62.6,-62.6,-62.6c-35.1,0,-64.2,21.4,-64.2,65.7c0,99.3,96.3,181.8,221.6,181.8c67.2,0,135.9,-21.4,189.4,-70.3c67.2,-59.6,67.2,-120.7,67.2,-203.2l0,-267.3c0,-23,0,-103.9,58.1,-103.9c21.4,0,58,12.2,58,99.3l0,85.5l33.6,0l0,-85.5C739.4,13.8,650.8,-7.5,618.8,-7.5c-65.7,0,-113.1,54.9,-119.2,126.7C470.6,45.8,401.8,-15.2,301,-15.2Z" 
	id="f3_h"
	transform="scale(0.001,-0.001)" />

	<path d="M50.4,0l0,44.3c99.3,0,116.1,0,116.1,68.8l0,415.5c0,74.9,-13.7,84,-111.5,84l0,44.3l207.8,16.9l0,-562.3c0,-59.6,6.1,-67.2,105.4,-67.2L316.3,3.1l-149.8,0C93.2,3.1,210.8,0,50.4,0ZM191,867.8c-36.7,0,-73.4,29,-73.4,74.8c0,41.3,33.7,73.4,73.4,73.4c42.8,0,74.8,-35.2,74.8,-74.9c0,-33.6,-27.5,-73.3,-74.8,-73.3Z" 
	id="f3_i"
	transform="scale(0.001,-0.001)" />

	<path d="M374.3,18.3c58.1,0,128.3,29.1,171.1,102.4c39.7,71.8,39.7,166.5,39.7,220c0,56.5,0,152.8,-47.3,223.1c-41.3,59.5,-105.4,87,-165,87c-53.5,0,-120.7,-24.4,-163.5,-90.1C161.9,491.9,161.9,398.8,161.9,340.7c0,-64.2,1.6,-154.3,42.8,-223.1C249,42.8,317.8,18.3,374.3,18.3Zm-1.5,-33.5c-174.2,0,-327,146.6,-327,342.1c0,192.5,145.2,354.5,328.5,354.5c177.2,0,327,-157.4,327,-354.5C701.3,134.4,553.1,-15.2,372.8,-15.2Z" 
	id="f3_k"
	transform="scale(0.001,-0.001)" />

	<path d="M48.9,0l0,44.3c99.3,0,116.1,0,116.1,68.8l0,414c0,74.8,-12.2,85.5,-116.1,85.5l0,44.3l207.8,16.9l0,-157.4l1.5,0c12.2,30.5,70.3,157.4,218.5,157.4c51.9,0,123.7,-9.2,168,-68.8c35.2,-48.9,35.2,-91.7,35.2,-233.7l0,-281.2C681.4,44.3,719.6,44.3,796,44.3L756.3,3.1l-169.6,0C504.2,3.1,629.4,0,464.4,0l0,44.3c99.4,0,116.2,0,116.2,68.8l0,359c0,93.2,-21.4,171.1,-116.2,171.1c-94.7,0,-200.1,-85.6,-200.1,-246l0,-284.1c0,-68.8,18.3,-68.8,116.1,-68.8L340.7,3.1l-169.6,0C88.6,3.1,213.9,0,48.9,0Z" 
	id="f3_j"
	transform="scale(0.001,-0.001)" />


</defs>

<!-- Any embedded fonts defined here -->
<style type="text/css" ><![CDATA[

@font-face {
	font-family: CMBX10_-;
	src: url("fonts/CMBX10_-.woff") format("woff");
}

@font-face {
	font-family: CMBX12_z;
	src: url("fonts/CMBX12_z.woff") format("woff");
}

@font-face {
	font-family: CMSY10__;
	src: url("fonts/CMSY10__.woff") format("woff");
}

@font-face {
	font-family: CMR12_10;
	src: url("fonts/CMR12_10.woff") format("woff");
}

]]></style>

</svg>
