<?xml version="1.0" encoding="UTF-8" standalone="no"?>
<!DOCTYPE svg PUBLIC "-//W3C//DTD SVG 1.1//EN"
 "http://www.w3.org/Graphics/SVG/1.1/DTD/svg11.dtd">
<!-- Generated by graphviz version 2.40.1 (20161225.0304)
 -->
<!-- Title: %3 Pages: 1 -->
<svg width="216pt" height="431pt"
 viewBox="0.00 0.00 216.00 431.00" xmlns="http://www.w3.org/2000/svg" xmlns:xlink="http://www.w3.org/1999/xlink">
<g id="graph0" class="graph" transform="scale(1 1) rotate(0) translate(4 427)">
<title>%3</title>
<polygon fill="#ffffff" stroke="transparent" points="-4,4 -4,-427 212,-427 212,4 -4,4"/>
<!-- 0 -->
<g id="node1" class="node">
<title>0</title>
<text text-anchor="start" x="87.5" y="-411.8" font-family="Times,serif" font-size="14.00" fill="#000000">start</text>
</g>
<!-- 1 -->
<g id="node2" class="node">
<title>1</title>
<text text-anchor="start" x="88.5" y="-360.8" font-family="Times,serif" font-size="14.00" fill="#000000">expr</text>
</g>
<!-- 0&#45;&gt;1 -->
<g id="edge1" class="edge">
<title>0&#45;&gt;1</title>
<path fill="none" stroke="#000000" d="M105,-407.9748C105,-401.195 105,-390.966 105,-382.1331"/>
<polygon fill="#000000" stroke="#000000" points="108.5001,-382.0561 105,-372.0561 101.5001,-382.0561 108.5001,-382.0561"/>
</g>
<!-- 2 -->
<g id="node3" class="node">
<title>2</title>
<text text-anchor="start" x="40.5" y="-309.8" font-family="Times,serif" font-size="14.00" fill="#000000">term</text>
</g>
<!-- 1&#45;&gt;2 -->
<g id="edge2" class="edge">
<title>1&#45;&gt;2</title>
<path fill="none" stroke="#000000" d="M98.065,-356.9748C91.1921,-349.517 80.4731,-337.8857 71.8512,-328.53"/>
<polygon fill="#000000" stroke="#000000" points="74.3141,-326.0378 64.9635,-321.0561 69.1666,-330.7816 74.3141,-326.0378"/>
</g>
<!-- 12 -->
<g id="node13" class="node">
<title>12</title>
<text text-anchor="middle" x="105" y="-309.8" font-family="Times,serif" font-size="14.00" fill="#000000"> + </text>
</g>
<!-- 1&#45;&gt;12 -->
<g id="edge12" class="edge">
<title>1&#45;&gt;12</title>
<path fill="none" stroke="#000000" d="M105,-356.9748C105,-350.195 105,-339.966 105,-331.1331"/>
<polygon fill="#000000" stroke="#000000" points="108.5001,-331.0561 105,-321.0561 101.5001,-331.0561 108.5001,-331.0561"/>
</g>
<!-- 13 -->
<g id="node14" class="node">
<title>13</title>
<text text-anchor="start" x="134.5" y="-309.8" font-family="Times,serif" font-size="14.00" fill="#000000">expr</text>
</g>
<!-- 1&#45;&gt;13 -->
<g id="edge13" class="edge">
<title>1&#45;&gt;13</title>
<path fill="none" stroke="#000000" d="M111.7875,-356.9748C118.5141,-349.517 129.005,-337.8857 137.4436,-328.53"/>
<polygon fill="#000000" stroke="#000000" points="140.086,-330.826 144.1847,-321.0561 134.888,-326.1376 140.086,-330.826"/>
</g>
<!-- 3 -->
<g id="node4" class="node">
<title>3</title>
<text text-anchor="start" x="36.5" y="-258.8" font-family="Times,serif" font-size="14.00" fill="#000000">factor</text>
</g>
<!-- 2&#45;&gt;3 -->
<g id="edge3" class="edge">
<title>2&#45;&gt;3</title>
<path fill="none" stroke="#000000" d="M58,-305.9748C58,-299.195 58,-288.966 58,-280.1331"/>
<polygon fill="#000000" stroke="#000000" points="61.5001,-280.0561 58,-270.0561 54.5001,-280.0561 61.5001,-280.0561"/>
</g>
<!-- 4 -->
<g id="node5" class="node">
<title>4</title>
<text text-anchor="middle" x="20" y="-207.8" font-family="Times,serif" font-size="14.00" fill="#000000">(</text>
</g>
<!-- 3&#45;&gt;4 -->
<g id="edge4" class="edge">
<title>3&#45;&gt;4</title>
<path fill="none" stroke="#000000" d="M52.393,-254.9748C46.3233,-246.8286 36.5434,-233.703 29.3156,-224.0025"/>
<polygon fill="#000000" stroke="#000000" points="31.9519,-221.6827 23.1704,-215.7551 26.3387,-225.8651 31.9519,-221.6827"/>
</g>
<!-- 5 -->
<g id="node6" class="node">
<title>5</title>
<text text-anchor="start" x="41.5" y="-207.8" font-family="Times,serif" font-size="14.00" fill="#000000">expr</text>
</g>
<!-- 3&#45;&gt;5 -->
<g id="edge5" class="edge">
<title>3&#45;&gt;5</title>
<path fill="none" stroke="#000000" d="M58,-254.9748C58,-248.195 58,-237.966 58,-229.1331"/>
<polygon fill="#000000" stroke="#000000" points="61.5001,-229.0561 58,-219.0561 54.5001,-229.0561 61.5001,-229.0561"/>
</g>
<!-- 11 -->
<g id="node12" class="node">
<title>11</title>
<text text-anchor="middle" x="96" y="-207.8" font-family="Times,serif" font-size="14.00" fill="#000000">)</text>
</g>
<!-- 3&#45;&gt;11 -->
<g id="edge11" class="edge">
<title>3&#45;&gt;11</title>
<path fill="none" stroke="#000000" d="M63.607,-254.9748C69.6767,-246.8286 79.4566,-233.703 86.6844,-224.0025"/>
<polygon fill="#000000" stroke="#000000" points="89.6613,-225.8651 92.8296,-215.7551 84.0481,-221.6827 89.6613,-225.8651"/>
</g>
<!-- 6 -->
<g id="node7" class="node">
<title>6</title>
<text text-anchor="start" x="40.5" y="-156.8" font-family="Times,serif" font-size="14.00" fill="#000000">term</text>
</g>
<!-- 5&#45;&gt;6 -->
<g id="edge6" class="edge">
<title>5&#45;&gt;6</title>
<path fill="none" stroke="#000000" d="M58,-203.9748C58,-197.195 58,-186.966 58,-178.1331"/>
<polygon fill="#000000" stroke="#000000" points="61.5001,-178.0561 58,-168.0561 54.5001,-178.0561 61.5001,-178.0561"/>
</g>
<!-- 7 -->
<g id="node8" class="node">
<title>7</title>
<text text-anchor="start" x="35.5" y="-105.8" font-family="Times,serif" font-size="14.00" fill="#000000">factor</text>
</g>
<!-- 6&#45;&gt;7 -->
<g id="edge7" class="edge">
<title>6&#45;&gt;7</title>
<path fill="none" stroke="#000000" d="M57.8524,-152.9748C57.7195,-146.195 57.5189,-135.966 57.3457,-127.1331"/>
<polygon fill="#000000" stroke="#000000" points="60.8436,-126.9855 57.1482,-117.0561 53.845,-127.1228 60.8436,-126.9855"/>
</g>
<!-- 8 -->
<g id="node9" class="node">
<title>8</title>
<text text-anchor="middle" x="3" y="-54.8" font-family="Times,serif" font-size="14.00" fill="#000000">(</text>
</g>
<!-- 7&#45;&gt;8 -->
<g id="edge8" class="edge">
<title>7&#45;&gt;8</title>
<path fill="none" stroke="#000000" d="M49.0321,-101.9748C39.6834,-93.1454 24.1409,-78.4664 13.7356,-68.6392"/>
<polygon fill="#000000" stroke="#000000" points="15.8721,-65.8428 6.1988,-61.521 11.0657,-70.9319 15.8721,-65.8428"/>
</g>
<!-- 9 -->
<g id="node10" class="node">
<title>9</title>
<text text-anchor="middle" x="56" y="-54.8" font-family="Times,serif" font-size="14.00" fill="#000000">&lt;expr&gt;*</text>
</g>
<!-- 7&#45;&gt;9 -->
<g id="edge9" class="edge">
<title>7&#45;&gt;9</title>
<path fill="none" stroke="#000000" d="M56.8524,-101.9748C56.7195,-95.195 56.5189,-84.966 56.3457,-76.1331"/>
<polygon fill="#000000" stroke="#000000" points="59.8436,-75.9855 56.1482,-66.0561 52.845,-76.1228 59.8436,-75.9855"/>
</g>
<!-- 10 -->
<g id="node11" class="node">
<title>10</title>
<text text-anchor="middle" x="109" y="-54.8" font-family="Times,serif" font-size="14.00" fill="#000000">)</text>
</g>
<!-- 7&#45;&gt;10 -->
<g id="edge10" class="edge">
<title>7&#45;&gt;10</title>
<path fill="none" stroke="#000000" d="M64.6728,-101.9748C73.5878,-93.2312 88.352,-78.7509 98.3688,-68.9268"/>
<polygon fill="#000000" stroke="#000000" points="100.9943,-71.2542 105.683,-61.7533 96.0928,-66.2566 100.9943,-71.2542"/>
</g>
<!-- 14 -->
<g id="node15" class="node">
<title>14</title>
<text text-anchor="start" x="133.5" y="-258.8" font-family="Times,serif" font-size="14.00" fill="#000000">term</text>
</g>
<!-- 13&#45;&gt;14 -->
<g id="edge14" class="edge">
<title>13&#45;&gt;14</title>
<path fill="none" stroke="#000000" d="M151,-305.9748C151,-299.195 151,-288.966 151,-280.1331"/>
<polygon fill="#000000" stroke="#000000" points="154.5001,-280.0561 151,-270.0561 147.5001,-280.0561 154.5001,-280.0561"/>
</g>
<!-- 15 -->
<g id="node16" class="node">
<title>15</title>
<text text-anchor="start" x="129.5" y="-207.8" font-family="Times,serif" font-size="14.00" fill="#000000">factor</text>
</g>
<!-- 14&#45;&gt;15 -->
<g id="edge15" class="edge">
<title>14&#45;&gt;15</title>
<path fill="none" stroke="#000000" d="M151,-254.9748C151,-248.195 151,-237.966 151,-229.1331"/>
<polygon fill="#000000" stroke="#000000" points="154.5001,-229.0561 151,-219.0561 147.5001,-229.0561 154.5001,-229.0561"/>
</g>
<!-- 16 -->
<g id="node17" class="node">
<title>16</title>
<text text-anchor="middle" x="113" y="-156.8" font-family="Times,serif" font-size="14.00" fill="#000000">(</text>
</g>
<!-- 15&#45;&gt;16 -->
<g id="edge16" class="edge">
<title>15&#45;&gt;16</title>
<path fill="none" stroke="#000000" d="M145.393,-203.9748C139.3233,-195.8286 129.5434,-182.703 122.3156,-173.0025"/>
<polygon fill="#000000" stroke="#000000" points="124.9519,-170.6827 116.1704,-164.7551 119.3387,-174.8651 124.9519,-170.6827"/>
</g>
<!-- 17 -->
<g id="node18" class="node">
<title>17</title>
<text text-anchor="start" x="134.5" y="-156.8" font-family="Times,serif" font-size="14.00" fill="#000000">expr</text>
</g>
<!-- 15&#45;&gt;17 -->
<g id="edge17" class="edge">
<title>15&#45;&gt;17</title>
<path fill="none" stroke="#000000" d="M151,-203.9748C151,-197.195 151,-186.966 151,-178.1331"/>
<polygon fill="#000000" stroke="#000000" points="154.5001,-178.0561 151,-168.0561 147.5001,-178.0561 154.5001,-178.0561"/>
</g>
<!-- 23 -->
<g id="node24" class="node">
<title>23</title>
<text text-anchor="middle" x="189" y="-156.8" font-family="Times,serif" font-size="14.00" fill="#000000">)</text>
</g>
<!-- 15&#45;&gt;23 -->
<g id="edge23" class="edge">
<title>15&#45;&gt;23</title>
<path fill="none" stroke="#000000" d="M156.607,-203.9748C162.6767,-195.8286 172.4566,-182.703 179.6844,-173.0025"/>
<polygon fill="#000000" stroke="#000000" points="182.6613,-174.8651 185.8296,-164.7551 177.0481,-170.6827 182.6613,-174.8651"/>
</g>
<!-- 18 -->
<g id="node19" class="node">
<title>18</title>
<text text-anchor="start" x="133.5" y="-105.8" font-family="Times,serif" font-size="14.00" fill="#000000">term</text>
</g>
<!-- 17&#45;&gt;18 -->
<g id="edge18" class="edge">
<title>17&#45;&gt;18</title>
<path fill="none" stroke="#000000" d="M151,-152.9748C151,-146.195 151,-135.966 151,-127.1331"/>
<polygon fill="#000000" stroke="#000000" points="154.5001,-127.0561 151,-117.0561 147.5001,-127.0561 154.5001,-127.0561"/>
</g>
<!-- 19 -->
<g id="node20" class="node">
<title>19</title>
<text text-anchor="start" x="130.5" y="-54.8" font-family="Times,serif" font-size="14.00" fill="#000000">factor</text>
</g>
<!-- 18&#45;&gt;19 -->
<g id="edge19" class="edge">
<title>18&#45;&gt;19</title>
<path fill="none" stroke="#000000" d="M151.1476,-101.9748C151.2805,-95.195 151.4811,-84.966 151.6543,-76.1331"/>
<polygon fill="#000000" stroke="#000000" points="155.155,-76.1228 151.8518,-66.0561 148.1564,-75.9855 155.155,-76.1228"/>
</g>
<!-- 20 -->
<g id="node21" class="node">
<title>20</title>
<text text-anchor="middle" x="99" y="-3.8" font-family="Times,serif" font-size="14.00" fill="#000000">(</text>
</g>
<!-- 19&#45;&gt;20 -->
<g id="edge20" class="edge">
<title>19&#45;&gt;20</title>
<path fill="none" stroke="#000000" d="M144.1797,-50.9748C135.0041,-42.1454 119.7494,-27.4664 109.5368,-17.6392"/>
<polygon fill="#000000" stroke="#000000" points="111.7721,-14.9329 102.1395,-10.521 106.9184,-19.9769 111.7721,-14.9329"/>
</g>
<!-- 21 -->
<g id="node22" class="node">
<title>21</title>
<text text-anchor="middle" x="152" y="-3.8" font-family="Times,serif" font-size="14.00" fill="#000000">&lt;expr&gt;*</text>
</g>
<!-- 19&#45;&gt;21 -->
<g id="edge21" class="edge">
<title>19&#45;&gt;21</title>
<path fill="none" stroke="#000000" d="M152,-50.9748C152,-44.195 152,-33.966 152,-25.1331"/>
<polygon fill="#000000" stroke="#000000" points="155.5001,-25.0561 152,-15.0561 148.5001,-25.0561 155.5001,-25.0561"/>
</g>
<!-- 22 -->
<g id="node23" class="node">
<title>22</title>
<text text-anchor="middle" x="205" y="-3.8" font-family="Times,serif" font-size="14.00" fill="#000000">)</text>
</g>
<!-- 19&#45;&gt;22 -->
<g id="edge22" class="edge">
<title>19&#45;&gt;22</title>
<path fill="none" stroke="#000000" d="M159.8203,-50.9748C168.9959,-42.1454 184.2506,-27.4664 194.4632,-17.6392"/>
<polygon fill="#000000" stroke="#000000" points="197.0816,-19.9769 201.8605,-10.521 192.2279,-14.9329 197.0816,-19.9769"/>
</g>
</g>
</svg>
