<?xml version="1.0" encoding="UTF-8" standalone="no"?>
<!DOCTYPE svg PUBLIC "-//W3C//DTD SVG 1.1//EN"
 "http://www.w3.org/Graphics/SVG/1.1/DTD/svg11.dtd">
<!-- Generated by graphviz version 2.40.1 (20161225.0304)
 -->
<!-- Title: %3 Pages: 1 -->
<svg width="90pt" height="584pt"
 viewBox="0.00 0.00 90.00 584.00" xmlns="http://www.w3.org/2000/svg" xmlns:xlink="http://www.w3.org/1999/xlink">
<g id="graph0" class="graph" transform="scale(1 1) rotate(0) translate(4 580)">
<title>%3</title>
<polygon fill="#ffffff" stroke="transparent" points="-4,4 -4,-580 86,-580 86,4 -4,4"/>
<!-- 0 -->
<g id="node1" class="node">
<title>0</title>
<text text-anchor="start" x="24.5" y="-564.8" font-family="Times,serif" font-size="14.00" fill="#000000">expr</text>
</g>
<!-- 1 -->
<g id="node2" class="node">
<title>1</title>
<text text-anchor="start" x="23.5" y="-513.8" font-family="Times,serif" font-size="14.00" fill="#000000">term</text>
</g>
<!-- 0&#45;&gt;1 -->
<g id="edge1" class="edge">
<title>0&#45;&gt;1</title>
<path fill="none" stroke="#000000" d="M41,-560.9748C41,-554.195 41,-543.966 41,-535.1331"/>
<polygon fill="#000000" stroke="#000000" points="44.5001,-535.0561 41,-525.0561 37.5001,-535.0561 44.5001,-535.0561"/>
</g>
<!-- 2 -->
<g id="node3" class="node">
<title>2</title>
<text text-anchor="start" x="19.5" y="-462.8" font-family="Times,serif" font-size="14.00" fill="#000000">factor</text>
</g>
<!-- 1&#45;&gt;2 -->
<g id="edge2" class="edge">
<title>1&#45;&gt;2</title>
<path fill="none" stroke="#000000" d="M41,-509.9748C41,-503.195 41,-492.966 41,-484.1331"/>
<polygon fill="#000000" stroke="#000000" points="44.5001,-484.0561 41,-474.0561 37.5001,-484.0561 44.5001,-484.0561"/>
</g>
<!-- 3 -->
<g id="node4" class="node">
<title>3</title>
<text text-anchor="middle" x="3" y="-411.8" font-family="Times,serif" font-size="14.00" fill="#000000">(</text>
</g>
<!-- 2&#45;&gt;3 -->
<g id="edge3" class="edge">
<title>2&#45;&gt;3</title>
<path fill="none" stroke="#000000" d="M35.393,-458.9748C29.3233,-450.8286 19.5434,-437.703 12.3156,-428.0025"/>
<polygon fill="#000000" stroke="#000000" points="14.9519,-425.6827 6.1704,-419.7551 9.3387,-429.8651 14.9519,-425.6827"/>
</g>
<!-- 4 -->
<g id="node5" class="node">
<title>4</title>
<text text-anchor="start" x="24.5" y="-411.8" font-family="Times,serif" font-size="14.00" fill="#000000">expr</text>
</g>
<!-- 2&#45;&gt;4 -->
<g id="edge4" class="edge">
<title>2&#45;&gt;4</title>
<path fill="none" stroke="#000000" d="M41,-458.9748C41,-452.195 41,-441.966 41,-433.1331"/>
<polygon fill="#000000" stroke="#000000" points="44.5001,-433.0561 41,-423.0561 37.5001,-433.0561 44.5001,-433.0561"/>
</g>
<!-- 15 -->
<g id="node16" class="node">
<title>15</title>
<text text-anchor="middle" x="79" y="-411.8" font-family="Times,serif" font-size="14.00" fill="#000000">)</text>
</g>
<!-- 2&#45;&gt;15 -->
<g id="edge15" class="edge">
<title>2&#45;&gt;15</title>
<path fill="none" stroke="#000000" d="M46.607,-458.9748C52.6767,-450.8286 62.4566,-437.703 69.6844,-428.0025"/>
<polygon fill="#000000" stroke="#000000" points="72.6613,-429.8651 75.8296,-419.7551 67.0481,-425.6827 72.6613,-429.8651"/>
</g>
<!-- 5 -->
<g id="node6" class="node">
<title>5</title>
<text text-anchor="start" x="23.5" y="-360.8" font-family="Times,serif" font-size="14.00" fill="#000000">term</text>
</g>
<!-- 4&#45;&gt;5 -->
<g id="edge5" class="edge">
<title>4&#45;&gt;5</title>
<path fill="none" stroke="#000000" d="M41,-407.9748C41,-401.195 41,-390.966 41,-382.1331"/>
<polygon fill="#000000" stroke="#000000" points="44.5001,-382.0561 41,-372.0561 37.5001,-382.0561 44.5001,-382.0561"/>
</g>
<!-- 6 -->
<g id="node7" class="node">
<title>6</title>
<text text-anchor="start" x="19.5" y="-309.8" font-family="Times,serif" font-size="14.00" fill="#000000">factor</text>
</g>
<!-- 5&#45;&gt;6 -->
<g id="edge6" class="edge">
<title>5&#45;&gt;6</title>
<path fill="none" stroke="#000000" d="M41,-356.9748C41,-350.195 41,-339.966 41,-331.1331"/>
<polygon fill="#000000" stroke="#000000" points="44.5001,-331.0561 41,-321.0561 37.5001,-331.0561 44.5001,-331.0561"/>
</g>
<!-- 7 -->
<g id="node8" class="node">
<title>7</title>
<text text-anchor="middle" x="3" y="-258.8" font-family="Times,serif" font-size="14.00" fill="#000000">(</text>
</g>
<!-- 6&#45;&gt;7 -->
<g id="edge7" class="edge">
<title>6&#45;&gt;7</title>
<path fill="none" stroke="#000000" d="M35.393,-305.9748C29.3233,-297.8286 19.5434,-284.703 12.3156,-275.0025"/>
<polygon fill="#000000" stroke="#000000" points="14.9519,-272.6827 6.1704,-266.7551 9.3387,-276.8651 14.9519,-272.6827"/>
</g>
<!-- 8 -->
<g id="node9" class="node">
<title>8</title>
<text text-anchor="start" x="24.5" y="-258.8" font-family="Times,serif" font-size="14.00" fill="#000000">expr</text>
</g>
<!-- 6&#45;&gt;8 -->
<g id="edge8" class="edge">
<title>6&#45;&gt;8</title>
<path fill="none" stroke="#000000" d="M41,-305.9748C41,-299.195 41,-288.966 41,-280.1331"/>
<polygon fill="#000000" stroke="#000000" points="44.5001,-280.0561 41,-270.0561 37.5001,-280.0561 44.5001,-280.0561"/>
</g>
<!-- 14 -->
<g id="node15" class="node">
<title>14</title>
<text text-anchor="middle" x="79" y="-258.8" font-family="Times,serif" font-size="14.00" fill="#000000">)</text>
</g>
<!-- 6&#45;&gt;14 -->
<g id="edge14" class="edge">
<title>6&#45;&gt;14</title>
<path fill="none" stroke="#000000" d="M46.607,-305.9748C52.6767,-297.8286 62.4566,-284.703 69.6844,-275.0025"/>
<polygon fill="#000000" stroke="#000000" points="72.6613,-276.8651 75.8296,-266.7551 67.0481,-272.6827 72.6613,-276.8651"/>
</g>
<!-- 9 -->
<g id="node10" class="node">
<title>9</title>
<text text-anchor="start" x="23.5" y="-207.8" font-family="Times,serif" font-size="14.00" fill="#000000">term</text>
</g>
<!-- 8&#45;&gt;9 -->
<g id="edge9" class="edge">
<title>8&#45;&gt;9</title>
<path fill="none" stroke="#000000" d="M41,-254.9748C41,-248.195 41,-237.966 41,-229.1331"/>
<polygon fill="#000000" stroke="#000000" points="44.5001,-229.0561 41,-219.0561 37.5001,-229.0561 44.5001,-229.0561"/>
</g>
<!-- 10 -->
<g id="node11" class="node">
<title>10</title>
<text text-anchor="start" x="19.5" y="-156.8" font-family="Times,serif" font-size="14.00" fill="#000000">factor</text>
</g>
<!-- 9&#45;&gt;10 -->
<g id="edge10" class="edge">
<title>9&#45;&gt;10</title>
<path fill="none" stroke="#000000" d="M41,-203.9748C41,-197.195 41,-186.966 41,-178.1331"/>
<polygon fill="#000000" stroke="#000000" points="44.5001,-178.0561 41,-168.0561 37.5001,-178.0561 44.5001,-178.0561"/>
</g>
<!-- 11 -->
<g id="node12" class="node">
<title>11</title>
<text text-anchor="start" x="15" y="-105.8" font-family="Times,serif" font-size="14.00" fill="#000000">integer</text>
</g>
<!-- 10&#45;&gt;11 -->
<g id="edge11" class="edge">
<title>10&#45;&gt;11</title>
<path fill="none" stroke="#000000" d="M41,-152.9748C41,-146.195 41,-135.966 41,-127.1331"/>
<polygon fill="#000000" stroke="#000000" points="44.5001,-127.0561 41,-117.0561 37.5001,-127.0561 44.5001,-127.0561"/>
</g>
<!-- 12 -->
<g id="node13" class="node">
<title>12</title>
<text text-anchor="start" x="24" y="-54.8" font-family="Times,serif" font-size="14.00" fill="#000000">digit</text>
</g>
<!-- 11&#45;&gt;12 -->
<g id="edge12" class="edge">
<title>11&#45;&gt;12</title>
<path fill="none" stroke="#000000" d="M41,-101.9748C41,-95.195 41,-84.966 41,-76.1331"/>
<polygon fill="#000000" stroke="#000000" points="44.5001,-76.0561 41,-66.0561 37.5001,-76.0561 44.5001,-76.0561"/>
</g>
<!-- 13 -->
<g id="node14" class="node">
<title>13</title>
<text text-anchor="middle" x="41" y="-3.8" font-family="Times,serif" font-size="14.00" fill="#000000">4</text>
</g>
<!-- 12&#45;&gt;13 -->
<g id="edge13" class="edge">
<title>12&#45;&gt;13</title>
<path fill="none" stroke="#000000" d="M41,-50.9748C41,-44.195 41,-33.966 41,-25.1331"/>
<polygon fill="#000000" stroke="#000000" points="44.5001,-25.0561 41,-15.0561 37.5001,-25.0561 44.5001,-25.0561"/>
</g>
</g>
</svg>
