<?xml version="1.0" encoding="UTF-8" standalone="no"?>
<!DOCTYPE svg PUBLIC "-//W3C//DTD SVG 1.1//EN"
 "http://www.w3.org/Graphics/SVG/1.1/DTD/svg11.dtd">
<!-- Generated by graphviz version 2.40.1 (20161225.0304)
 -->
<!-- Title: %3 Pages: 1 -->
<svg width="279pt" height="788pt"
 viewBox="0.00 0.00 279.00 788.00" xmlns="http://www.w3.org/2000/svg" xmlns:xlink="http://www.w3.org/1999/xlink">
<g id="graph0" class="graph" transform="scale(1 1) rotate(0) translate(4 784)">
<title>%3</title>
<polygon fill="#ffffff" stroke="transparent" points="-4,4 -4,-784 275,-784 275,4 -4,4"/>
<!-- 0 -->
<g id="node1" class="node">
<title>0</title>
<text text-anchor="start" x="75.5" y="-768.8" font-family="Times,serif" font-size="14.00" fill="#000000">start</text>
</g>
<!-- 1 -->
<g id="node2" class="node">
<title>1</title>
<text text-anchor="start" x="76.5" y="-717.8" font-family="Times,serif" font-size="14.00" fill="#000000">expr</text>
</g>
<!-- 0&#45;&gt;1 -->
<g id="edge1" class="edge">
<title>0&#45;&gt;1</title>
<path fill="none" stroke="#000000" d="M93,-764.9748C93,-758.195 93,-747.966 93,-739.1331"/>
<polygon fill="#000000" stroke="#000000" points="96.5001,-739.0561 93,-729.0561 89.5001,-739.0561 96.5001,-739.0561"/>
</g>
<!-- 2 -->
<g id="node3" class="node">
<title>2</title>
<text text-anchor="start" x="28.5" y="-666.8" font-family="Times,serif" font-size="14.00" fill="#000000">term</text>
</g>
<!-- 1&#45;&gt;2 -->
<g id="edge2" class="edge">
<title>1&#45;&gt;2</title>
<path fill="none" stroke="#000000" d="M86.065,-713.9748C79.1921,-706.517 68.4731,-694.8857 59.8512,-685.53"/>
<polygon fill="#000000" stroke="#000000" points="62.3141,-683.0378 52.9635,-678.0561 57.1666,-687.7816 62.3141,-683.0378"/>
</g>
<!-- 17 -->
<g id="node18" class="node">
<title>17</title>
<text text-anchor="middle" x="93" y="-666.8" font-family="Times,serif" font-size="14.00" fill="#000000"> + </text>
</g>
<!-- 1&#45;&gt;17 -->
<g id="edge17" class="edge">
<title>1&#45;&gt;17</title>
<path fill="none" stroke="#000000" d="M93,-713.9748C93,-707.195 93,-696.966 93,-688.1331"/>
<polygon fill="#000000" stroke="#000000" points="96.5001,-688.0561 93,-678.0561 89.5001,-688.0561 96.5001,-688.0561"/>
</g>
<!-- 18 -->
<g id="node19" class="node">
<title>18</title>
<text text-anchor="start" x="122.5" y="-666.8" font-family="Times,serif" font-size="14.00" fill="#000000">expr</text>
</g>
<!-- 1&#45;&gt;18 -->
<g id="edge18" class="edge">
<title>1&#45;&gt;18</title>
<path fill="none" stroke="#000000" d="M99.7875,-713.9748C106.5141,-706.517 117.005,-694.8857 125.4436,-685.53"/>
<polygon fill="#000000" stroke="#000000" points="128.086,-687.826 132.1847,-678.0561 122.888,-683.1376 128.086,-687.826"/>
</g>
<!-- 3 -->
<g id="node4" class="node">
<title>3</title>
<text text-anchor="start" x="23.5" y="-615.8" font-family="Times,serif" font-size="14.00" fill="#000000">factor</text>
</g>
<!-- 2&#45;&gt;3 -->
<g id="edge3" class="edge">
<title>2&#45;&gt;3</title>
<path fill="none" stroke="#000000" d="M45.8524,-662.9748C45.7195,-656.195 45.5189,-645.966 45.3457,-637.1331"/>
<polygon fill="#000000" stroke="#000000" points="48.8436,-636.9855 45.1482,-627.0561 41.845,-637.1228 48.8436,-636.9855"/>
</g>
<!-- 4 -->
<g id="node5" class="node">
<title>4</title>
<text text-anchor="middle" x="7" y="-564.8" font-family="Times,serif" font-size="14.00" fill="#000000">(</text>
</g>
<!-- 3&#45;&gt;4 -->
<g id="edge4" class="edge">
<title>3&#45;&gt;4</title>
<path fill="none" stroke="#000000" d="M39.393,-611.9748C33.3233,-603.8286 23.5434,-590.703 16.3156,-581.0025"/>
<polygon fill="#000000" stroke="#000000" points="18.9519,-578.6827 10.1704,-572.7551 13.3387,-582.8651 18.9519,-578.6827"/>
</g>
<!-- 5 -->
<g id="node6" class="node">
<title>5</title>
<text text-anchor="start" x="28.5" y="-564.8" font-family="Times,serif" font-size="14.00" fill="#000000">expr</text>
</g>
<!-- 3&#45;&gt;5 -->
<g id="edge5" class="edge">
<title>3&#45;&gt;5</title>
<path fill="none" stroke="#000000" d="M45,-611.9748C45,-605.195 45,-594.966 45,-586.1331"/>
<polygon fill="#000000" stroke="#000000" points="48.5001,-586.0561 45,-576.0561 41.5001,-586.0561 48.5001,-586.0561"/>
</g>
<!-- 16 -->
<g id="node17" class="node">
<title>16</title>
<text text-anchor="middle" x="83" y="-564.8" font-family="Times,serif" font-size="14.00" fill="#000000">)</text>
</g>
<!-- 3&#45;&gt;16 -->
<g id="edge16" class="edge">
<title>3&#45;&gt;16</title>
<path fill="none" stroke="#000000" d="M50.607,-611.9748C56.6767,-603.8286 66.4566,-590.703 73.6844,-581.0025"/>
<polygon fill="#000000" stroke="#000000" points="76.6613,-582.8651 79.8296,-572.7551 71.0481,-578.6827 76.6613,-582.8651"/>
</g>
<!-- 6 -->
<g id="node7" class="node">
<title>6</title>
<text text-anchor="start" x="27.5" y="-513.8" font-family="Times,serif" font-size="14.00" fill="#000000">term</text>
</g>
<!-- 5&#45;&gt;6 -->
<g id="edge6" class="edge">
<title>5&#45;&gt;6</title>
<path fill="none" stroke="#000000" d="M45,-560.9748C45,-554.195 45,-543.966 45,-535.1331"/>
<polygon fill="#000000" stroke="#000000" points="48.5001,-535.0561 45,-525.0561 41.5001,-535.0561 48.5001,-535.0561"/>
</g>
<!-- 7 -->
<g id="node8" class="node">
<title>7</title>
<text text-anchor="start" x="20.5" y="-462.8" font-family="Times,serif" font-size="14.00" fill="#000000">factor</text>
</g>
<!-- 6&#45;&gt;7 -->
<g id="edge7" class="edge">
<title>6&#45;&gt;7</title>
<path fill="none" stroke="#000000" d="M44.5573,-509.9748C44.1585,-503.195 43.5568,-492.966 43.0372,-484.1331"/>
<polygon fill="#000000" stroke="#000000" points="46.5258,-483.8333 42.4445,-474.0561 39.5378,-484.2444 46.5258,-483.8333"/>
</g>
<!-- 8 -->
<g id="node9" class="node">
<title>8</title>
<text text-anchor="middle" x="3" y="-411.8" font-family="Times,serif" font-size="14.00" fill="#000000">(</text>
</g>
<!-- 7&#45;&gt;8 -->
<g id="edge8" class="edge">
<title>7&#45;&gt;8</title>
<path fill="none" stroke="#000000" d="M36.2454,-458.9748C29.9524,-450.7455 19.7735,-437.4346 12.3345,-427.7067"/>
<polygon fill="#000000" stroke="#000000" points="14.909,-425.3114 6.0542,-419.4939 9.3484,-429.5636 14.909,-425.3114"/>
</g>
<!-- 9 -->
<g id="node10" class="node">
<title>9</title>
<text text-anchor="start" x="24.5" y="-411.8" font-family="Times,serif" font-size="14.00" fill="#000000">expr</text>
</g>
<!-- 7&#45;&gt;9 -->
<g id="edge9" class="edge">
<title>7&#45;&gt;9</title>
<path fill="none" stroke="#000000" d="M41.8524,-458.9748C41.7195,-452.195 41.5189,-441.966 41.3457,-433.1331"/>
<polygon fill="#000000" stroke="#000000" points="44.8436,-432.9855 41.1482,-423.0561 37.845,-433.1228 44.8436,-432.9855"/>
</g>
<!-- 15 -->
<g id="node16" class="node">
<title>15</title>
<text text-anchor="middle" x="79" y="-411.8" font-family="Times,serif" font-size="14.00" fill="#000000">)</text>
</g>
<!-- 7&#45;&gt;15 -->
<g id="edge15" class="edge">
<title>7&#45;&gt;15</title>
<path fill="none" stroke="#000000" d="M47.4595,-458.9748C53.3694,-450.8286 62.8919,-437.703 69.9295,-428.0025"/>
<polygon fill="#000000" stroke="#000000" points="72.8737,-429.9046 75.913,-419.7551 67.2077,-425.794 72.8737,-429.9046"/>
</g>
<!-- 10 -->
<g id="node11" class="node">
<title>10</title>
<text text-anchor="start" x="23.5" y="-360.8" font-family="Times,serif" font-size="14.00" fill="#000000">term</text>
</g>
<!-- 9&#45;&gt;10 -->
<g id="edge10" class="edge">
<title>9&#45;&gt;10</title>
<path fill="none" stroke="#000000" d="M41,-407.9748C41,-401.195 41,-390.966 41,-382.1331"/>
<polygon fill="#000000" stroke="#000000" points="44.5001,-382.0561 41,-372.0561 37.5001,-382.0561 44.5001,-382.0561"/>
</g>
<!-- 11 -->
<g id="node12" class="node">
<title>11</title>
<text text-anchor="start" x="14.5" y="-309.8" font-family="Times,serif" font-size="14.00" fill="#000000">factor</text>
</g>
<!-- 10&#45;&gt;11 -->
<g id="edge11" class="edge">
<title>10&#45;&gt;11</title>
<path fill="none" stroke="#000000" d="M40.2622,-356.9748C39.5975,-350.195 38.5947,-339.966 37.7287,-331.1331"/>
<polygon fill="#000000" stroke="#000000" points="41.1999,-330.6669 36.7408,-321.0561 34.2333,-331.3499 41.1999,-330.6669"/>
</g>
<!-- 12 -->
<g id="node13" class="node">
<title>12</title>
<text text-anchor="start" x="0" y="-258.8" font-family="Times,serif" font-size="14.00" fill="#000000">integer</text>
</g>
<!-- 11&#45;&gt;12 -->
<g id="edge12" class="edge">
<title>11&#45;&gt;12</title>
<path fill="none" stroke="#000000" d="M34.5245,-305.9748C33.1951,-299.195 31.1894,-288.966 29.4575,-280.1331"/>
<polygon fill="#000000" stroke="#000000" points="32.8404,-279.1958 27.4816,-270.0561 25.9712,-280.5427 32.8404,-279.1958"/>
</g>
<!-- 13 -->
<g id="node14" class="node">
<title>13</title>
<text text-anchor="start" x="9" y="-207.8" font-family="Times,serif" font-size="14.00" fill="#000000">digit</text>
</g>
<!-- 12&#45;&gt;13 -->
<g id="edge13" class="edge">
<title>12&#45;&gt;13</title>
<path fill="none" stroke="#000000" d="M26,-254.9748C26,-248.195 26,-237.966 26,-229.1331"/>
<polygon fill="#000000" stroke="#000000" points="29.5001,-229.0561 26,-219.0561 22.5001,-229.0561 29.5001,-229.0561"/>
</g>
<!-- 14 -->
<g id="node15" class="node">
<title>14</title>
<text text-anchor="middle" x="26" y="-156.8" font-family="Times,serif" font-size="14.00" fill="#000000">4</text>
</g>
<!-- 13&#45;&gt;14 -->
<g id="edge14" class="edge">
<title>13&#45;&gt;14</title>
<path fill="none" stroke="#000000" d="M26,-203.9748C26,-197.195 26,-186.966 26,-178.1331"/>
<polygon fill="#000000" stroke="#000000" points="29.5001,-178.0561 26,-168.0561 22.5001,-178.0561 29.5001,-178.0561"/>
</g>
<!-- 19 -->
<g id="node20" class="node">
<title>19</title>
<text text-anchor="start" x="121.5" y="-615.8" font-family="Times,serif" font-size="14.00" fill="#000000">term</text>
</g>
<!-- 18&#45;&gt;19 -->
<g id="edge19" class="edge">
<title>18&#45;&gt;19</title>
<path fill="none" stroke="#000000" d="M139,-662.9748C139,-656.195 139,-645.966 139,-637.1331"/>
<polygon fill="#000000" stroke="#000000" points="142.5001,-637.0561 139,-627.0561 135.5001,-637.0561 142.5001,-637.0561"/>
</g>
<!-- 20 -->
<g id="node21" class="node">
<title>20</title>
<text text-anchor="start" x="117.5" y="-564.8" font-family="Times,serif" font-size="14.00" fill="#000000">factor</text>
</g>
<!-- 19&#45;&gt;20 -->
<g id="edge20" class="edge">
<title>19&#45;&gt;20</title>
<path fill="none" stroke="#000000" d="M139,-611.9748C139,-605.195 139,-594.966 139,-586.1331"/>
<polygon fill="#000000" stroke="#000000" points="142.5001,-586.0561 139,-576.0561 135.5001,-586.0561 142.5001,-586.0561"/>
</g>
<!-- 21 -->
<g id="node22" class="node">
<title>21</title>
<text text-anchor="middle" x="101" y="-513.8" font-family="Times,serif" font-size="14.00" fill="#000000">(</text>
</g>
<!-- 20&#45;&gt;21 -->
<g id="edge21" class="edge">
<title>20&#45;&gt;21</title>
<path fill="none" stroke="#000000" d="M133.393,-560.9748C127.3233,-552.8286 117.5434,-539.703 110.3156,-530.0025"/>
<polygon fill="#000000" stroke="#000000" points="112.9519,-527.6827 104.1704,-521.7551 107.3387,-531.8651 112.9519,-527.6827"/>
</g>
<!-- 22 -->
<g id="node23" class="node">
<title>22</title>
<text text-anchor="start" x="122.5" y="-513.8" font-family="Times,serif" font-size="14.00" fill="#000000">expr</text>
</g>
<!-- 20&#45;&gt;22 -->
<g id="edge22" class="edge">
<title>20&#45;&gt;22</title>
<path fill="none" stroke="#000000" d="M139,-560.9748C139,-554.195 139,-543.966 139,-535.1331"/>
<polygon fill="#000000" stroke="#000000" points="142.5001,-535.0561 139,-525.0561 135.5001,-535.0561 142.5001,-535.0561"/>
</g>
<!-- 45 -->
<g id="node46" class="node">
<title>45</title>
<text text-anchor="middle" x="177" y="-513.8" font-family="Times,serif" font-size="14.00" fill="#000000">)</text>
</g>
<!-- 20&#45;&gt;45 -->
<g id="edge45" class="edge">
<title>20&#45;&gt;45</title>
<path fill="none" stroke="#000000" d="M144.607,-560.9748C150.6767,-552.8286 160.4566,-539.703 167.6844,-530.0025"/>
<polygon fill="#000000" stroke="#000000" points="170.6613,-531.8651 173.8296,-521.7551 165.0481,-527.6827 170.6613,-531.8651"/>
</g>
<!-- 23 -->
<g id="node24" class="node">
<title>23</title>
<text text-anchor="start" x="121.5" y="-462.8" font-family="Times,serif" font-size="14.00" fill="#000000">term</text>
</g>
<!-- 22&#45;&gt;23 -->
<g id="edge23" class="edge">
<title>22&#45;&gt;23</title>
<path fill="none" stroke="#000000" d="M139,-509.9748C139,-503.195 139,-492.966 139,-484.1331"/>
<polygon fill="#000000" stroke="#000000" points="142.5001,-484.0561 139,-474.0561 135.5001,-484.0561 142.5001,-484.0561"/>
</g>
<!-- 24 -->
<g id="node25" class="node">
<title>24</title>
<text text-anchor="start" x="117.5" y="-411.8" font-family="Times,serif" font-size="14.00" fill="#000000">factor</text>
</g>
<!-- 23&#45;&gt;24 -->
<g id="edge24" class="edge">
<title>23&#45;&gt;24</title>
<path fill="none" stroke="#000000" d="M139,-458.9748C139,-452.195 139,-441.966 139,-433.1331"/>
<polygon fill="#000000" stroke="#000000" points="142.5001,-433.0561 139,-423.0561 135.5001,-433.0561 142.5001,-433.0561"/>
</g>
<!-- 25 -->
<g id="node26" class="node">
<title>25</title>
<text text-anchor="middle" x="101" y="-360.8" font-family="Times,serif" font-size="14.00" fill="#000000">(</text>
</g>
<!-- 24&#45;&gt;25 -->
<g id="edge25" class="edge">
<title>24&#45;&gt;25</title>
<path fill="none" stroke="#000000" d="M133.393,-407.9748C127.3233,-399.8286 117.5434,-386.703 110.3156,-377.0025"/>
<polygon fill="#000000" stroke="#000000" points="112.9519,-374.6827 104.1704,-368.7551 107.3387,-378.8651 112.9519,-374.6827"/>
</g>
<!-- 26 -->
<g id="node27" class="node">
<title>26</title>
<text text-anchor="start" x="122.5" y="-360.8" font-family="Times,serif" font-size="14.00" fill="#000000">expr</text>
</g>
<!-- 24&#45;&gt;26 -->
<g id="edge26" class="edge">
<title>24&#45;&gt;26</title>
<path fill="none" stroke="#000000" d="M139,-407.9748C139,-401.195 139,-390.966 139,-382.1331"/>
<polygon fill="#000000" stroke="#000000" points="142.5001,-382.0561 139,-372.0561 135.5001,-382.0561 142.5001,-382.0561"/>
</g>
<!-- 44 -->
<g id="node45" class="node">
<title>44</title>
<text text-anchor="middle" x="177" y="-360.8" font-family="Times,serif" font-size="14.00" fill="#000000">)</text>
</g>
<!-- 24&#45;&gt;44 -->
<g id="edge44" class="edge">
<title>24&#45;&gt;44</title>
<path fill="none" stroke="#000000" d="M144.607,-407.9748C150.6767,-399.8286 160.4566,-386.703 167.6844,-377.0025"/>
<polygon fill="#000000" stroke="#000000" points="170.6613,-378.8651 173.8296,-368.7551 165.0481,-374.6827 170.6613,-378.8651"/>
</g>
<!-- 27 -->
<g id="node28" class="node">
<title>27</title>
<text text-anchor="start" x="121.5" y="-309.8" font-family="Times,serif" font-size="14.00" fill="#000000">term</text>
</g>
<!-- 26&#45;&gt;27 -->
<g id="edge27" class="edge">
<title>26&#45;&gt;27</title>
<path fill="none" stroke="#000000" d="M139,-356.9748C139,-350.195 139,-339.966 139,-331.1331"/>
<polygon fill="#000000" stroke="#000000" points="142.5001,-331.0561 139,-321.0561 135.5001,-331.0561 142.5001,-331.0561"/>
</g>
<!-- 28 -->
<g id="node29" class="node">
<title>28</title>
<text text-anchor="start" x="70.5" y="-258.8" font-family="Times,serif" font-size="14.00" fill="#000000">factor</text>
</g>
<!-- 27&#45;&gt;28 -->
<g id="edge28" class="edge">
<title>27&#45;&gt;28</title>
<path fill="none" stroke="#000000" d="M132.065,-305.9748C125.1921,-298.517 114.4731,-286.8857 105.8512,-277.53"/>
<polygon fill="#000000" stroke="#000000" points="108.3141,-275.0378 98.9635,-270.0561 103.1666,-279.7816 108.3141,-275.0378"/>
</g>
<!-- 32 -->
<g id="node33" class="node">
<title>32</title>
<text text-anchor="middle" x="140" y="-258.8" font-family="Times,serif" font-size="14.00" fill="#000000"> * </text>
</g>
<!-- 27&#45;&gt;32 -->
<g id="edge32" class="edge">
<title>27&#45;&gt;32</title>
<path fill="none" stroke="#000000" d="M139.1476,-305.9748C139.2805,-299.195 139.4811,-288.966 139.6543,-280.1331"/>
<polygon fill="#000000" stroke="#000000" points="143.155,-280.1228 139.8518,-270.0561 136.1564,-279.9855 143.155,-280.1228"/>
</g>
<!-- 33 -->
<g id="node34" class="node">
<title>33</title>
<text text-anchor="start" x="174.5" y="-258.8" font-family="Times,serif" font-size="14.00" fill="#000000">term</text>
</g>
<!-- 27&#45;&gt;33 -->
<g id="edge33" class="edge">
<title>27&#45;&gt;33</title>
<path fill="none" stroke="#000000" d="M146.8203,-305.9748C154.6489,-298.4417 166.9026,-286.6503 176.6745,-277.2472"/>
<polygon fill="#000000" stroke="#000000" points="179.3687,-279.5119 184.1476,-270.0561 174.515,-274.4679 179.3687,-279.5119"/>
</g>
<!-- 29 -->
<g id="node30" class="node">
<title>29</title>
<text text-anchor="start" x="63" y="-207.8" font-family="Times,serif" font-size="14.00" fill="#000000">integer</text>
</g>
<!-- 28&#45;&gt;29 -->
<g id="edge29" class="edge">
<title>28&#45;&gt;29</title>
<path fill="none" stroke="#000000" d="M91.5573,-254.9748C91.1585,-248.195 90.5568,-237.966 90.0372,-229.1331"/>
<polygon fill="#000000" stroke="#000000" points="93.5258,-228.8333 89.4445,-219.0561 86.5378,-229.2444 93.5258,-228.8333"/>
</g>
<!-- 30 -->
<g id="node31" class="node">
<title>30</title>
<text text-anchor="start" x="72" y="-156.8" font-family="Times,serif" font-size="14.00" fill="#000000">digit</text>
</g>
<!-- 29&#45;&gt;30 -->
<g id="edge30" class="edge">
<title>29&#45;&gt;30</title>
<path fill="none" stroke="#000000" d="M89,-203.9748C89,-197.195 89,-186.966 89,-178.1331"/>
<polygon fill="#000000" stroke="#000000" points="92.5001,-178.0561 89,-168.0561 85.5001,-178.0561 92.5001,-178.0561"/>
</g>
<!-- 31 -->
<g id="node32" class="node">
<title>31</title>
<text text-anchor="middle" x="89" y="-105.8" font-family="Times,serif" font-size="14.00" fill="#000000">2</text>
</g>
<!-- 30&#45;&gt;31 -->
<g id="edge31" class="edge">
<title>30&#45;&gt;31</title>
<path fill="none" stroke="#000000" d="M89,-152.9748C89,-146.195 89,-135.966 89,-127.1331"/>
<polygon fill="#000000" stroke="#000000" points="92.5001,-127.0561 89,-117.0561 85.5001,-127.0561 92.5001,-127.0561"/>
</g>
<!-- 34 -->
<g id="node35" class="node">
<title>34</title>
<text text-anchor="start" x="133.5" y="-207.8" font-family="Times,serif" font-size="14.00" fill="#000000">factor</text>
</g>
<!-- 33&#45;&gt;34 -->
<g id="edge34" class="edge">
<title>33&#45;&gt;34</title>
<path fill="none" stroke="#000000" d="M186.5405,-254.9748C181.2939,-247.743 173.2002,-236.5868 166.5256,-227.3866"/>
<polygon fill="#000000" stroke="#000000" points="169.1872,-225.095 160.4819,-219.0561 163.5212,-229.2056 169.1872,-225.095"/>
</g>
<!-- 38 -->
<g id="node39" class="node">
<title>38</title>
<text text-anchor="middle" x="202" y="-207.8" font-family="Times,serif" font-size="14.00" fill="#000000"> / </text>
</g>
<!-- 33&#45;&gt;38 -->
<g id="edge38" class="edge">
<title>33&#45;&gt;38</title>
<path fill="none" stroke="#000000" d="M193.4755,-254.9748C194.8049,-248.195 196.8106,-237.966 198.5425,-229.1331"/>
<polygon fill="#000000" stroke="#000000" points="202.0288,-229.5427 200.5184,-219.0561 195.1596,-228.1958 202.0288,-229.5427"/>
</g>
<!-- 39 -->
<g id="node40" class="node">
<title>39</title>
<text text-anchor="start" x="227.5" y="-207.8" font-family="Times,serif" font-size="14.00" fill="#000000">term</text>
</g>
<!-- 33&#45;&gt;39 -->
<g id="edge39" class="edge">
<title>33&#45;&gt;39</title>
<path fill="none" stroke="#000000" d="M199.8203,-254.9748C207.6489,-247.4417 219.9026,-235.6503 229.6745,-226.2472"/>
<polygon fill="#000000" stroke="#000000" points="232.3687,-228.5119 237.1476,-219.0561 227.515,-223.4679 232.3687,-228.5119"/>
</g>
<!-- 35 -->
<g id="node36" class="node">
<title>35</title>
<text text-anchor="start" x="129" y="-156.8" font-family="Times,serif" font-size="14.00" fill="#000000">integer</text>
</g>
<!-- 34&#45;&gt;35 -->
<g id="edge35" class="edge">
<title>34&#45;&gt;35</title>
<path fill="none" stroke="#000000" d="M155,-203.9748C155,-197.195 155,-186.966 155,-178.1331"/>
<polygon fill="#000000" stroke="#000000" points="158.5001,-178.0561 155,-168.0561 151.5001,-178.0561 158.5001,-178.0561"/>
</g>
<!-- 36 -->
<g id="node37" class="node">
<title>36</title>
<text text-anchor="start" x="138" y="-105.8" font-family="Times,serif" font-size="14.00" fill="#000000">digit</text>
</g>
<!-- 35&#45;&gt;36 -->
<g id="edge36" class="edge">
<title>35&#45;&gt;36</title>
<path fill="none" stroke="#000000" d="M155,-152.9748C155,-146.195 155,-135.966 155,-127.1331"/>
<polygon fill="#000000" stroke="#000000" points="158.5001,-127.0561 155,-117.0561 151.5001,-127.0561 158.5001,-127.0561"/>
</g>
<!-- 37 -->
<g id="node38" class="node">
<title>37</title>
<text text-anchor="middle" x="155" y="-54.8" font-family="Times,serif" font-size="14.00" fill="#000000">3</text>
</g>
<!-- 36&#45;&gt;37 -->
<g id="edge37" class="edge">
<title>36&#45;&gt;37</title>
<path fill="none" stroke="#000000" d="M155,-101.9748C155,-95.195 155,-84.966 155,-76.1331"/>
<polygon fill="#000000" stroke="#000000" points="158.5001,-76.0561 155,-66.0561 151.5001,-76.0561 158.5001,-76.0561"/>
</g>
<!-- 40 -->
<g id="node41" class="node">
<title>40</title>
<text text-anchor="start" x="223.5" y="-156.8" font-family="Times,serif" font-size="14.00" fill="#000000">factor</text>
</g>
<!-- 39&#45;&gt;40 -->
<g id="edge40" class="edge">
<title>39&#45;&gt;40</title>
<path fill="none" stroke="#000000" d="M245,-203.9748C245,-197.195 245,-186.966 245,-178.1331"/>
<polygon fill="#000000" stroke="#000000" points="248.5001,-178.0561 245,-168.0561 241.5001,-178.0561 248.5001,-178.0561"/>
</g>
<!-- 41 -->
<g id="node42" class="node">
<title>41</title>
<text text-anchor="start" x="219" y="-105.8" font-family="Times,serif" font-size="14.00" fill="#000000">integer</text>
</g>
<!-- 40&#45;&gt;41 -->
<g id="edge41" class="edge">
<title>40&#45;&gt;41</title>
<path fill="none" stroke="#000000" d="M245,-152.9748C245,-146.195 245,-135.966 245,-127.1331"/>
<polygon fill="#000000" stroke="#000000" points="248.5001,-127.0561 245,-117.0561 241.5001,-127.0561 248.5001,-127.0561"/>
</g>
<!-- 42 -->
<g id="node43" class="node">
<title>42</title>
<text text-anchor="start" x="228" y="-54.8" font-family="Times,serif" font-size="14.00" fill="#000000">digit</text>
</g>
<!-- 41&#45;&gt;42 -->
<g id="edge42" class="edge">
<title>41&#45;&gt;42</title>
<path fill="none" stroke="#000000" d="M245,-101.9748C245,-95.195 245,-84.966 245,-76.1331"/>
<polygon fill="#000000" stroke="#000000" points="248.5001,-76.0561 245,-66.0561 241.5001,-76.0561 248.5001,-76.0561"/>
</g>
<!-- 43 -->
<g id="node44" class="node">
<title>43</title>
<text text-anchor="middle" x="245" y="-3.8" font-family="Times,serif" font-size="14.00" fill="#000000">4</text>
</g>
<!-- 42&#45;&gt;43 -->
<g id="edge43" class="edge">
<title>42&#45;&gt;43</title>
<path fill="none" stroke="#000000" d="M245,-50.9748C245,-44.195 245,-33.966 245,-25.1331"/>
<polygon fill="#000000" stroke="#000000" points="248.5001,-25.0561 245,-15.0561 241.5001,-25.0561 248.5001,-25.0561"/>
</g>
</g>
</svg>
