<?xml version="1.0" encoding="UTF-8" standalone="no"?>
<!DOCTYPE svg PUBLIC "-//W3C//DTD SVG 1.1//EN"
 "http://www.w3.org/Graphics/SVG/1.1/DTD/svg11.dtd">
<!-- Generated by graphviz version 2.40.1 (20161225.0304)
 -->
<!-- Title: %3 Pages: 1 -->
<svg width="60pt" height="278pt"
 viewBox="0.00 0.00 60.00 278.00" xmlns="http://www.w3.org/2000/svg" xmlns:xlink="http://www.w3.org/1999/xlink">
<g id="graph0" class="graph" transform="scale(1 1) rotate(0) translate(4 274)">
<title>%3</title>
<polygon fill="#ffffff" stroke="transparent" points="-4,4 -4,-274 56,-274 56,4 -4,4"/>
<!-- 0 -->
<g id="node1" class="node">
<title>0</title>
<text text-anchor="start" x="9.5" y="-258.8" font-family="Times,serif" font-size="14.00" fill="#000000">expr</text>
</g>
<!-- 1 -->
<g id="node2" class="node">
<title>1</title>
<text text-anchor="start" x="8.5" y="-207.8" font-family="Times,serif" font-size="14.00" fill="#000000">term</text>
</g>
<!-- 0&#45;&gt;1 -->
<g id="edge1" class="edge">
<title>0&#45;&gt;1</title>
<path fill="none" stroke="#000000" d="M26,-254.9748C26,-248.195 26,-237.966 26,-229.1331"/>
<polygon fill="#000000" stroke="#000000" points="29.5001,-229.0561 26,-219.0561 22.5001,-229.0561 29.5001,-229.0561"/>
</g>
<!-- 2 -->
<g id="node3" class="node">
<title>2</title>
<text text-anchor="start" x="4.5" y="-156.8" font-family="Times,serif" font-size="14.00" fill="#000000">factor</text>
</g>
<!-- 1&#45;&gt;2 -->
<g id="edge2" class="edge">
<title>1&#45;&gt;2</title>
<path fill="none" stroke="#000000" d="M26,-203.9748C26,-197.195 26,-186.966 26,-178.1331"/>
<polygon fill="#000000" stroke="#000000" points="29.5001,-178.0561 26,-168.0561 22.5001,-178.0561 29.5001,-178.0561"/>
</g>
<!-- 3 -->
<g id="node4" class="node">
<title>3</title>
<text text-anchor="start" x="0" y="-105.8" font-family="Times,serif" font-size="14.00" fill="#000000">integer</text>
</g>
<!-- 2&#45;&gt;3 -->
<g id="edge3" class="edge">
<title>2&#45;&gt;3</title>
<path fill="none" stroke="#000000" d="M26,-152.9748C26,-146.195 26,-135.966 26,-127.1331"/>
<polygon fill="#000000" stroke="#000000" points="29.5001,-127.0561 26,-117.0561 22.5001,-127.0561 29.5001,-127.0561"/>
</g>
<!-- 4 -->
<g id="node5" class="node">
<title>4</title>
<text text-anchor="start" x="9" y="-54.8" font-family="Times,serif" font-size="14.00" fill="#000000">digit</text>
</g>
<!-- 3&#45;&gt;4 -->
<g id="edge4" class="edge">
<title>3&#45;&gt;4</title>
<path fill="none" stroke="#000000" d="M26,-101.9748C26,-95.195 26,-84.966 26,-76.1331"/>
<polygon fill="#000000" stroke="#000000" points="29.5001,-76.0561 26,-66.0561 22.5001,-76.0561 29.5001,-76.0561"/>
</g>
<!-- 5 -->
<g id="node6" class="node">
<title>5</title>
<text text-anchor="middle" x="26" y="-3.8" font-family="Times,serif" font-size="14.00" fill="#000000">4</text>
</g>
<!-- 4&#45;&gt;5 -->
<g id="edge5" class="edge">
<title>4&#45;&gt;5</title>
<path fill="none" stroke="#000000" d="M26,-50.9748C26,-44.195 26,-33.966 26,-25.1331"/>
<polygon fill="#000000" stroke="#000000" points="29.5001,-25.0561 26,-15.0561 22.5001,-25.0561 29.5001,-25.0561"/>
</g>
</g>
</svg>
